<svg width="300" height="64" viewBox="0 0 300 64" fill="none" xmlns="http://www.w3.org/2000/svg">
<g clip-path="url(#clip0_490_9)">
<path d="M64 32C64 49.6762 49.6762 64 32 64C14.3238 64 0 49.6762 0 32C0 14.3238 14.3238 0 32 0C49.6762 0 64 14.3238 64 32ZM17.7256 46.6203C17.981 47.0486 18.3681 47.1805 18.8458 47.1722C19.9166 47.1558 20.9874 47.1558 22.0581 47.1722C22.8324 47.1805 23.3185 46.851 23.6313 46.1343C26.0036 40.8052 28.3923 35.4925 30.7727 30.1714C31.1516 29.323 31.5306 28.4828 31.9588 27.5356C32.0823 27.7992 32.1648 27.9558 32.2389 28.1204C33.1532 30.122 34.0757 32.1235 34.9817 34.1251C36.7856 38.1199 38.5895 42.1148 40.3769 46.118C40.698 46.8428 41.1758 47.2052 41.9913 47.1805C43.062 47.1475 44.1328 47.1805 45.2036 47.1722C46.1921 47.164 46.5051 46.678 46.1014 45.7884C41.7771 36.3737 37.4528 26.9508 33.1367 17.528C32.9143 17.0502 32.626 16.8278 32.0823 16.8278C31.514 16.8278 31.2176 17.0584 30.9869 17.5527C27.1979 25.7401 23.4008 33.9274 19.6036 42.1148C18.9858 43.441 18.3434 44.7506 17.7174 46.0685C17.7256 46.2579 17.7256 46.4391 17.7256 46.6203Z" fill="#3369E8"/>
<path d="M17.7256 46.6203C17.981 47.0486 18.3681 47.1805 18.8458 47.1722C19.9166 47.1558 20.9874 47.1558 22.0581 47.1722C22.8324 47.1805 23.3185 46.851 23.6313 46.1343C26.0036 40.8052 28.3923 35.4925 30.7727 30.1714C31.1516 29.323 31.5306 28.4828 31.9588 27.5356C32.0823 27.7992 32.1648 27.9558 32.2389 28.1204C33.1532 30.122 34.0757 32.1235 34.9817 34.1251C36.7856 38.1199 38.5895 42.1148 40.3769 46.118C40.698 46.8428 41.1758 47.2052 41.9913 47.1805C43.062 47.1475 44.1328 47.1805 45.2036 47.1722C46.1921 47.164 46.5051 46.678 46.1014 45.7884C41.7771 36.3737 37.4528 26.9508 33.1367 17.528C32.9143 17.0502 32.626 16.8278 32.0823 16.8278C31.514 16.8278 31.2176 17.0584 30.9869 17.5527C27.1979 25.7401 23.4008 33.9274 19.6036 42.1148C18.9858 43.441 18.3434 44.7506 17.7174 46.0685C17.7256 46.2579 17.7256 46.4391 17.7256 46.6203Z" fill="white"/>
<path d="M79.3906 46.1379C80.0205 44.7935 80.6668 43.466 81.28 42.1049C85.0923 33.77 88.9043 25.452 92.6999 17.1171C92.9486 16.613 93.2468 16.3777 93.8104 16.3777C94.3574 16.3777 94.6392 16.5962 94.8711 17.0835C99.1971 26.6787 103.54 36.2569 107.882 45.8353C108.296 46.7428 107.982 47.2301 106.987 47.2469C105.91 47.2637 104.832 47.2301 103.772 47.2637C102.959 47.2974 102.479 46.9108 102.147 46.1882C100.357 42.1217 98.5507 38.055 96.7274 33.9885C95.7993 31.9383 94.8877 29.905 93.9596 27.8718C93.8933 27.7037 93.8104 27.5525 93.6779 27.2836C93.2468 28.2415 92.8657 29.0985 92.4845 29.9723C90.0977 35.3831 87.6945 40.7941 85.3077 46.2219C84.9928 46.9445 84.4955 47.2974 83.7331 47.2806C82.6558 47.2637 81.5784 47.2637 80.5177 47.2806C80.0371 47.2806 79.6393 47.163 79.3906 46.726C79.3906 46.5075 79.3906 46.3226 79.3906 46.1379ZM118.274 46.037C118.274 47.0116 118.523 47.2637 119.484 47.2637C122.633 47.2637 125.782 47.2806 128.932 47.2469C129.91 47.2301 130.888 47.163 131.849 47.0116C139.904 45.6505 145.456 37.7526 144.13 29.5521C142.97 22.3264 136.622 16.865 129.363 16.8482C126.031 16.8482 122.7 16.8482 119.368 16.8482C118.49 16.8482 118.258 17.0835 118.258 17.9741C118.258 22.6457 118.258 27.334 118.258 32.0056C118.274 36.6771 118.274 41.3487 118.274 46.037ZM123.876 22.2087C123.926 22.1752 123.943 22.1415 123.976 22.1415C126.412 22.1752 128.865 21.8726 131.269 22.4608C135.147 23.4186 137.998 26.9307 138.28 30.9469C138.495 33.8708 137.832 36.5091 135.893 38.744C134.103 40.7941 131.782 41.8025 129.097 41.8864C127.374 41.9369 125.666 41.9032 123.876 41.9032C123.876 35.2655 123.876 28.7288 123.876 22.2087Z" fill="white"/>
<path d="M289.431 47.6333C289.098 47.5828 288.75 47.5156 288.385 47.4653C287.623 47.3475 286.828 47.23 286.082 47.0451C284.143 46.5746 282.403 45.684 280.878 44.3733C280.198 43.7851 280.165 43.5834 280.613 42.7937C281.06 42.0207 281.491 41.2477 281.938 40.4747C282.187 40.0378 282.485 39.8193 282.818 39.8193C283.032 39.8193 283.297 39.9201 283.579 40.105C285.121 41.13 286.812 42.1382 288.784 42.5752C289.181 42.6592 289.579 42.7096 289.96 42.7096C290.507 42.7096 291.054 42.6089 291.568 42.424C292.745 41.987 293.557 41.1132 293.822 40.021C294.088 38.9455 293.772 37.7861 292.944 36.845C291.982 35.7695 290.723 35.131 289.479 34.526L289.431 34.4925C289.016 34.2908 288.601 34.0891 288.187 33.8874C286.91 33.2657 285.585 32.6439 284.375 31.8878C282.403 30.6611 281.143 28.9469 280.646 26.7961C280.132 24.6283 280.447 22.4438 281.523 20.6289C282.601 18.8141 284.375 17.5033 286.529 16.932C287.706 16.6128 288.9 16.4614 290.06 16.4614C292.894 16.4614 295.712 17.4193 298.447 19.3014C298.976 19.6711 299.093 20.2425 298.745 20.7969C298.231 21.6204 297.701 22.4102 297.17 23.1664C296.856 23.62 296.573 23.8217 296.243 23.8217C296.01 23.8217 295.762 23.721 295.447 23.5361C293.772 22.5111 292.331 21.7548 290.673 21.4187C290.325 21.3515 289.994 21.3178 289.662 21.3178C289.115 21.3178 288.568 21.4187 288.071 21.6036C286.976 22.0236 286.215 22.8471 285.982 23.8554C285.75 24.8804 286.082 25.9559 286.878 26.8129C287.84 27.8548 289.098 28.4428 290.325 29.0142L290.391 29.0478C290.706 29.1991 291.038 29.3503 291.369 29.5015C292.695 30.1233 294.07 30.7619 295.363 31.5013C296.954 32.4087 298.181 33.6521 299.01 35.1981C300.038 37.1474 300.237 39.3824 299.557 41.4661C298.828 43.6843 297.22 45.4823 295.032 46.5242C293.822 47.0955 292.563 47.4484 291.287 47.5324C291.154 47.5492 291.038 47.566 290.906 47.5997C290.856 47.6165 290.806 47.6333 290.756 47.6333H289.431ZM226.082 47.1795C225.585 47.1795 225.287 46.978 225.056 46.5073C224.177 44.7262 223.282 42.9113 222.403 41.1468C221.541 39.3992 220.647 37.6012 219.784 35.8368C219.602 35.467 219.403 35.2486 218.922 35.2486H218.874C218.359 35.2654 217.78 35.2654 217.082 35.2654C216.702 35.2654 216.321 35.2654 215.94 35.2654C215.541 35.2654 215.144 35.2654 214.73 35.2654H214.647C214.647 35.2654 214.647 43.5498 214.647 45.9528C214.647 46.9275 214.415 47.1627 213.437 47.1627C213.437 47.1627 211.912 47.1627 211.531 47.1627C211.066 47.1627 210.619 47.1627 210.155 47.1627C209.409 47.1627 209.16 46.9107 209.16 46.1713C209.16 36.7442 209.16 27.317 209.16 17.873C209.16 17.1504 209.393 16.9152 210.105 16.9152C211.265 16.9152 212.425 16.9152 213.603 16.9152C214.944 16.9152 216.287 16.9152 217.63 16.9152C219.469 16.9152 220.994 16.9152 222.437 16.932C224.906 16.9489 227.309 18.0242 229.016 19.9064C230.724 21.7716 231.602 24.2754 231.419 26.7793C231.188 30.0729 229.497 32.56 226.249 34.3915C226.032 34.5091 225.818 34.6269 225.569 34.7276C225.453 34.7781 225.321 34.8452 225.188 34.9125L225.105 34.9461L226.116 36.845C226.846 38.2061 227.557 39.5336 228.271 40.878L228.718 41.735C229.431 43.0793 230.177 44.4573 230.89 45.8184C231.104 46.2217 231.138 46.5746 231.006 46.8099C230.856 47.0619 230.541 47.1795 230.06 47.1963C229.796 47.1963 229.513 47.1963 229.249 47.1963C228.95 47.1963 227.79 47.1963 227.509 47.1963C227.028 47.1963 226.547 47.1963 226.066 47.1963L226.082 47.1795ZM214.696 30.7282H217.762C219.238 30.7282 220.696 30.7282 222.155 30.7282C222.305 30.7282 222.453 30.6946 222.602 30.6443C222.635 30.6275 222.685 30.6275 222.718 30.6106C224.707 30.1233 226.249 27.9387 226.032 25.9391C225.784 23.7041 223.944 22.0236 221.774 22.0068C220.928 22.0068 220.082 22.0068 219.238 22.0068H214.713V30.7282H214.696ZM163.233 47.1795C161.924 47.1795 160.614 47.1795 159.305 47.1795H157.449C156.669 47.1795 156.421 46.9275 156.421 46.1545C156.421 36.7442 156.421 27.3338 156.421 17.9235C156.421 17.1672 156.653 16.932 157.383 16.932H157.431C158.427 16.932 159.405 16.932 160.399 16.9152C161.393 16.9152 162.371 16.8984 163.365 16.8984C165.006 16.8984 166.349 16.9152 167.591 16.9489C170.459 17.0328 172.747 18.1588 174.421 20.3096C176.94 23.5529 176.361 27.8548 173.062 30.5434C172.73 30.8123 172.365 31.0643 172 31.3164C171.836 31.434 171.669 31.5349 171.519 31.6525L171.421 31.7196L171.537 31.7869C171.769 31.9213 172.018 32.0558 172.249 32.1902C172.763 32.4759 173.293 32.7783 173.791 33.1144C175.631 34.442 176.724 36.3577 176.824 38.5085C176.94 40.8107 175.978 43.113 174.255 44.6758C172.431 46.3225 170.178 47.1292 167.377 47.146C166.134 47.1795 164.824 47.1795 163.233 47.1795ZM161.84 42.0711H161.924C162.537 42.0711 163.15 42.0879 163.747 42.0879C164.327 42.1047 164.94 42.1047 165.537 42.1047C166.415 42.1047 167.128 42.0711 167.791 42.0206C168.786 41.9367 169.697 41.3653 170.311 40.4579C170.974 39.4665 171.188 38.2397 170.874 37.1642C170.443 35.719 168.836 34.4588 167.261 34.3579C166.216 34.2908 165.139 34.2908 164.112 34.2908C163.664 34.2908 163.216 34.2908 162.769 34.274C162.669 34.274 162.569 34.274 162.471 34.274H161.858V42.0711H161.84ZM161.84 29.6359H164.741C165.355 29.6359 165.968 29.6359 166.565 29.6359C167.924 29.6359 168.968 29.031 169.664 27.8548C170.377 26.6449 170.443 25.0653 169.813 23.8554C169.249 22.763 168.205 22.1077 166.862 22.0068C166.183 21.9565 165.503 21.9565 164.99 21.9565C164.725 21.9565 164.475 21.9565 164.211 21.9565C163.946 21.9565 163.697 21.9565 163.431 21.9565C163.299 21.9565 163.166 21.9565 163.034 21.9565C162.902 21.9565 162.769 21.9565 162.619 21.9565H161.84V29.6359ZM192.038 47.1795C191.475 47.1795 190.912 47.1795 190.349 47.1795C189.603 47.1795 189.321 46.8939 189.321 46.1376C189.321 36.7274 189.321 27.3338 189.321 17.9235C189.321 17.184 189.586 16.932 190.315 16.932C190.912 16.932 191.509 16.932 192.106 16.932C192.685 16.932 193.283 16.932 193.862 16.932C194.575 16.932 194.808 17.1672 194.808 17.8898C194.808 21.4187 194.808 24.9477 194.808 28.4765C194.808 28.4765 194.808 42.676 194.808 46.1713C194.808 46.9443 194.559 47.1963 193.78 47.1963C193.199 47.1627 192.619 47.1795 192.038 47.1795ZM250.729 47.1627C249.369 47.1627 248.028 47.1627 246.668 47.1627H245.475C244.629 47.1627 244.397 46.9275 244.397 46.0873C244.397 42.6089 244.397 32.0054 244.397 32.0054V18.0242C244.397 17.1169 244.597 16.9152 245.475 16.9152H245.491C246.453 16.9152 247.415 16.9152 248.375 16.932C249.337 16.932 250.299 16.9489 251.259 16.9489C252.585 16.9489 253.696 16.932 254.74 16.9152C254.84 16.9152 254.956 16.9152 255.054 16.9152C258.535 16.9152 261.934 18.2091 264.601 20.5449C267.187 22.8135 268.96 25.9054 269.574 29.2495C270.237 32.8119 269.573 36.5425 267.734 39.7353C265.894 42.9281 262.994 45.3143 259.613 46.4402C258.104 46.9443 256.513 47.1963 254.79 47.1963C253.463 47.1627 252.104 47.1627 250.729 47.1627ZM249.818 41.9702H249.9C250.447 41.9702 250.978 41.9702 251.525 41.987C252.054 41.987 252.585 42.0038 253.116 42.0038C253.862 42.0038 254.475 41.987 255.054 41.9702C257.872 41.8694 260.176 40.7435 261.884 38.6263C263.89 36.156 264.585 33.2321 263.956 29.9217C263.226 26.0903 261.022 23.5864 257.425 22.4774C256.132 22.0741 254.84 22.0236 253.729 22.0236C253.315 22.0236 252.884 22.0404 252.469 22.0404C252.054 22.0573 251.624 22.0573 251.193 22.0573C250.712 22.0573 250.299 22.0404 249.934 22.0236H249.85V41.9702H249.818Z" fill="white"/>
</g>
<defs>
<clipPath id="clip0_490_9">
<rect width="300" height="64" fill="white"/>
</clipPath>
</defs>
</svg>
