<svg width="916" height="192" viewBox="0 0 916 192" fill="none" xmlns="http://www.w3.org/2000/svg">
<g clip-path="url(#clip0_490_153)">
<path d="M37.6958 73.0735C37.3189 73.1572 36.942 74.4973 36.1464 75.2929C35.602 75.7954 34.932 75.7954 34.5551 76.4235C34.3876 76.6329 34.4714 77.0936 34.3039 77.4704C34.0107 78.3079 32.922 78.3917 32.922 79.2292C32.922 80.1505 33.8432 80.3599 34.597 81.0717C35.2251 81.6161 35.3089 81.993 35.9789 82.2024C36.607 82.4118 37.5283 81.7418 38.3658 81.993C39.0777 82.2024 39.7477 82.3699 39.9152 83.0399C40.0827 83.7099 39.9152 84.7149 39.0777 84.5474C38.7846 84.5474 37.5283 84.0868 36.0626 84.2543C34.2201 84.4637 32.1263 85.0081 32.0007 87.06C31.9169 88.1906 33.2988 89.4888 34.597 89.2794C35.5183 89.1119 35.0576 87.9812 35.602 87.4368C36.3139 86.7668 40.0408 89.7819 43.6003 89.7819C45.0659 89.7819 46.1966 89.405 47.2853 88.2744C47.3691 88.1906 47.5366 87.9812 47.6622 87.9812C47.8297 87.9812 48.0391 88.1487 48.1228 88.1906C50.9704 90.4519 53.106 94.9745 63.4912 95.0163C64.9569 95.0163 66.6319 95.6864 68.0138 96.9007C69.2282 98.0314 69.9401 99.7902 70.6101 101.549C71.6988 104.229 73.5414 106.783 76.3889 109.589C76.5564 109.757 78.8596 111.557 79.069 111.641C79.069 111.641 79.3202 112.102 79.2365 112.311C79.1527 114.07 78.9433 119.011 82.7121 119.22C83.6334 119.304 83.424 118.592 83.424 118.174C83.424 117.336 83.2565 116.415 83.7172 115.577C84.3453 114.363 82.419 113.819 82.419 111.18C82.5028 109.212 80.7859 109.505 79.9483 108.082C79.4877 107.244 79.0271 106.7 79.0271 105.653C79.1946 99.6645 77.7289 95.6864 77.017 94.7651C76.4727 94.0113 75.9283 93.7601 76.4727 93.3832C79.6133 91.3313 80.3252 89.4469 80.3252 89.4469C82.0003 85.5524 83.4659 81.993 85.5597 80.4855C85.9366 80.1924 87.0253 79.3548 87.6953 79.0617C89.6216 78.1404 90.6266 77.6379 91.171 77.0936C92.0085 76.256 92.8042 74.4135 91.9248 73.3666C90.836 71.9847 89.0772 73.0735 88.2397 73.576C82.4609 77.0098 81.6234 82.9143 79.6133 86.3481C77.9802 89.07 75.4676 91.1219 73.1645 91.2894C71.4057 91.4569 69.5632 91.08 67.7206 90.2425C63.1981 88.2744 60.7274 85.7618 60.0993 85.3012C58.9268 84.3799 49.5466 75.2091 41.8415 74.7904C41.8415 74.7904 40.9202 72.906 40.669 72.906C40.1246 72.8222 39.4964 74.0366 39.1196 74.2041C38.7008 74.4135 38.0727 72.9897 37.6958 73.0735Z" fill="white"/>
</g>
<path d="M172.343 120C172.121 120 171.861 120 171.639 120L176.528 106.519H183.269C184.454 106.519 185.75 105.593 186.158 104.481L191.491 89.8519C192.38 87.4444 190.972 85.4815 188.454 85.4815H179.084L171.232 107.111L166.787 119.37C156.232 116.852 148.343 107.37 148.343 96C148.343 85 155.75 75.7037 165.861 72.8889L161.269 85.5185L153.639 106.519H158.713L165.195 88.6667H169.009L162.528 106.519H167.602L173.676 89.8889C174.565 87.4815 173.195 85.5185 170.639 85.5185H166.343L171.269 72.037C171.639 72.037 171.972 72 172.343 72C185.602 72 196.343 82.7407 196.343 96C196.343 109.259 185.602 120 172.343 120ZM186.861 88.6667H183.046L177.676 103.37H181.491L186.861 88.6667Z" fill="white"/>
<path fill-rule="evenodd" clip-rule="evenodd" d="M317.166 115.746V111.419H318.265L320.474 114.242V111.419H321.511V115.746H320.366L318.23 112.977V115.746H317.166ZM312.148 113.592C312.148 114.081 312.291 114.462 312.583 114.714C312.87 114.965 313.234 115.091 313.687 115.091C314.118 115.091 314.5 114.965 314.774 114.714C315.079 114.462 315.204 114.081 315.204 113.574C315.204 113.062 315.079 112.703 314.809 112.456C314.5 112.2 314.136 112.093 313.687 112.093C313.216 112.093 312.853 112.218 312.583 112.456C312.291 112.703 312.148 113.08 312.148 113.592ZM311.08 113.605C311.08 113.174 311.169 112.793 311.331 112.505L311.825 111.895L312.507 111.514C312.853 111.383 313.234 111.33 313.669 111.33C314.464 111.33 315.097 111.531 315.572 111.926C316.021 112.326 316.277 112.887 316.277 113.592C316.277 114.296 316.039 114.862 315.572 115.261C315.097 115.652 314.464 115.84 313.687 115.84C312.888 115.84 312.251 115.652 311.784 115.261C311.331 114.862 311.08 114.319 311.08 113.605ZM306.834 112.182V115.001H307.673L308.378 114.965L308.831 114.786L309.141 114.368L309.244 113.592L309.141 112.833L308.813 112.416L308.283 112.218C308.122 112.2 307.817 112.182 307.345 112.182H306.834ZM305.77 111.419H307.758C308.216 111.419 308.557 111.455 308.813 111.514L309.625 111.913L310.137 112.618L310.317 113.623L310.151 114.548L309.558 115.311L308.795 115.652L307.835 115.746H305.77V111.419ZM300.281 115.746V111.419H301.407L303.602 114.242V111.419H304.648V115.746H303.508L301.353 112.977V115.746H300.281ZM295.285 113.592C295.285 114.081 295.406 114.462 295.698 114.714C296.008 114.965 296.367 115.091 296.825 115.091C297.242 115.091 297.632 114.965 297.911 114.714C298.198 114.462 298.346 114.081 298.346 113.574C298.346 113.062 298.198 112.703 297.929 112.456C297.632 112.2 297.273 112.093 296.825 112.093C296.331 112.093 295.967 112.218 295.698 112.456C295.406 112.703 295.285 113.08 295.285 113.592ZM294.217 113.605C294.217 113.174 294.302 112.793 294.446 112.505L294.957 111.895L295.644 111.514C295.967 111.383 296.367 111.33 296.784 111.33C297.583 111.33 298.216 111.531 298.705 111.926C299.159 112.326 299.396 112.887 299.396 113.592C299.396 114.296 299.176 114.862 298.705 115.261C298.216 115.652 297.583 115.84 296.825 115.84C296.026 115.84 295.388 115.652 294.899 115.261C294.446 114.862 294.217 114.319 294.217 113.605ZM289.76 115.746V111.419H290.828V115.001H293.602V115.746H289.76ZM262.497 86.6794C262.955 86.5896 263.296 86.4819 263.75 86.3697C265.707 85.463 267.43 84.0357 268.009 81.8589L267.937 80.9522C267.34 79.3993 265.909 78.3669 264.315 78.0438C263.476 77.9675 262.771 77.77 262.031 77.9316L261.124 78.5689L260.927 78.9459C260.653 81.41 261.573 83.762 261.757 86.2261L262.067 86.5896L262.497 86.6794ZM319.482 91.5134L320.276 91.4371C320.967 91.2216 321.47 90.5573 321.726 89.902L321.78 89.5205L321.47 88.9999C321.017 88.6902 320.438 88.6543 319.931 88.9774C319.132 89.4353 318.683 90.2836 318.844 91.0421L319.1 91.4191L319.482 91.5134ZM311.403 92.2899H311.51L312.072 91.5807C312.166 89.3769 312.233 87.1327 311.641 84.9783L311.367 84.4352L311.331 84.2153C310.878 82.8733 309.989 81.7153 308.503 81.2619L307.74 81.2754L306.784 81.9711C306.367 82.5321 306.587 83.2368 306.367 83.8876L306.587 86.2261L307.197 87.6579L307.309 87.9137C307.906 89.3769 309.015 90.5214 310.168 91.5807L310.949 92.1642L311.403 92.2899ZM269.836 93.0304L269.998 92.9811C270.954 92.5996 271.591 91.5807 271.811 90.5573C271.793 90.0143 271.613 89.5968 271.411 89.2512L270.393 88.9774C269.93 89.1794 269.441 89.5205 269.311 90.104C269.19 90.9703 268.934 91.6211 269.042 92.3258L269.387 92.9452L269.751 93.0529L269.836 93.0304ZM293.279 93.578H293.656C294.54 93.1606 295.101 92.2899 295.245 91.3338C295.227 90.7324 295.227 90.2297 294.975 89.7764L294.72 89.6327C294.253 89.4846 293.656 89.5968 293.202 89.8347L292.641 90.7863C292.641 91.4954 292.39 92.2584 292.605 92.9811L292.857 93.4299L293.279 93.578ZM354.926 93.6857L355.178 93.578L355.429 93.3805L355.591 93.1606C355.685 92.0744 355.793 90.7863 354.98 89.9783L354.455 89.8841L354.199 89.9783L353.638 90.5214C353.257 91.3338 352.956 92.2225 352.826 93.1247L353.005 93.4299C353.584 93.6857 354.271 93.578 354.926 93.6857ZM257.596 95.2477L258.121 95.1893L258.857 94.8078L259.203 94.534L259.706 94.0672C261.344 90.2297 259.62 86.0241 258.642 82.2404L258.296 81.989H257.919C256.541 82.5321 256.2 84.2153 255.819 85.463C255.11 88.2009 254.459 91.3653 255.873 93.8877C256.344 94.3545 256.69 94.8482 257.215 95.1714L257.596 95.2477ZM282.857 95.3734L283.615 95.2971C284.271 95.0637 285.07 94.5744 285.231 93.78C285.339 92.6175 284.526 91.9443 283.799 91.3338C283.22 91.0421 282.659 90.8581 282.13 90.9164L281.394 91.5448C280.994 92.5277 281.178 93.78 281.753 94.6462L282.403 95.2971L282.857 95.3734ZM258.121 96.9982C259.782 96.7827 261.178 95.8761 261.99 94.3231C262.287 93.1606 262.848 92.1642 262.668 91.06C262.318 90.4137 262.448 89.5205 262.789 88.8518L263.66 88.2907C265.963 88.0214 268.409 87.1866 269.8 85.1219C270.559 83.9415 270.559 82.4379 270.289 81.1901C269.549 79.0896 267.83 77.9136 266.034 77.007C263.66 76.428 261.124 76.7017 258.804 76.1587L258.498 76.3786L258.368 76.7556L258.229 77.6623C254.935 81.3697 252.592 86.5896 253.247 91.8006C253.467 92.7073 253.593 93.5062 253.884 94.2827C254.445 95.6247 255.801 96.6032 257.215 96.877L258.121 96.9982ZM279.257 103.286C280.343 102.649 279.98 101.311 280.236 100.284C279.98 99.1212 280.236 97.8913 279.836 96.7827L279.526 96.5314L278.911 96.5134C277.736 97.622 278.041 99.772 277.839 101.226C277.969 101.751 277.861 102.052 277.969 102.452C278.135 102.797 278.386 103.125 278.822 103.358L279.257 103.286ZM306.021 105.077C307.291 105.077 308.032 103.937 308.831 103.125C309.702 101.478 310.806 100.028 311.295 98.3222L311.403 97.5457C311.784 96.9802 311.712 96.2576 311.712 95.5709L311.528 95.2971C310.317 94.7899 309.082 95.6427 307.893 96.078C305.667 97.622 303.364 99.3231 302.404 101.765C302.547 102.923 302.929 103.879 303.849 104.516C304.594 104.821 305.317 105.1 306.021 105.077ZM278.458 105.786C278.911 105.8 279.347 105.697 279.782 105.553C280.958 104.992 281.753 103.879 281.968 102.469C282.026 100.912 281.968 99.4129 282.026 97.9452C282.148 97.4201 282.767 97.254 283.234 97.236C284.939 97.5143 286.537 97.236 288.126 97.438C290.088 97.3438 291.811 96.4192 293.656 96.7333C295.357 97.3438 297.422 97.7612 299.087 96.7333L299.594 96.3877C299.899 96.078 300.357 95.5125 300.155 94.9694L300.047 94.6642L299.63 94.3904L299.015 94.4667L298.49 94.736C297.727 94.9694 296.807 95.5125 296.026 95.0278L295.9 94.6642L297.04 93.2324L297.404 91.4954C297.493 90.876 297.291 90.3374 297.148 89.7764C296.681 88.7979 295.734 87.8374 294.482 87.9137C293.279 87.8913 291.878 87.6399 291.174 88.6543L290.851 88.8518C289.742 90.104 289.562 91.9667 289.944 93.6139L290.267 94.6462L289.993 95.0278L288.925 95.2971L288.22 94.8078C288.023 93.0708 287.498 91.1319 285.9 90.0816C284.306 88.9101 282.444 88.201 280.563 88.8518C277.677 90.0636 276.03 93.5062 273.117 94.6642L272.224 94.5744L271.937 94.3231V94.0672C272.785 92.7432 274.365 91.7647 274.27 90.0636C274.185 89.4532 273.983 89.0358 273.763 88.6184C273.059 87.6579 271.663 87.2584 270.559 87.4065C269.113 87.6579 267.771 87.9496 267.049 89.1974C266.429 90.4272 266.761 91.5807 266.721 92.7073L266.506 93.1247L266.142 93.3087C265.689 93.4119 265.199 93.2324 264.746 93.2504L264.495 93.4119L264.383 93.762L264.562 94.0672C265.473 94.5744 266.609 94.341 267.52 94.9156L267.83 95.1893C268.858 96.0062 270.177 96.9982 271.663 96.877C273.279 96.675 274.526 95.5709 276.03 95.4452L276.25 95.5709L276.34 95.8087L276.156 98.035C275.613 99.8258 276.268 101.639 276.447 103.466L276.591 103.879C276.717 104.391 277.098 104.821 277.408 105.279L278.041 105.697L278.458 105.786ZM305.249 106.926C307.489 107.039 309.805 106.276 311.111 104.444C311.403 103.61 311.964 103.013 312.345 102.393C312.853 101.114 313.378 99.8258 313.795 98.4524C314.212 97.5457 314.32 96.3877 314.643 95.3554L314.738 95.0637L314.899 94.8482C315.46 94.534 316.116 94.6642 316.695 94.9021L317.96 96.096C319.643 96.9622 321.798 97.9452 323.616 96.7109C324.702 96.0601 325.824 96.1499 326.708 96.7109C327.31 97.1328 328.122 97.3438 328.777 96.9982C329.59 96.6391 330.038 96.0062 330.694 95.6427L331.722 95.7504C332.157 96.2755 332.79 96.675 333.302 97.1642L333.773 97.3438L334.455 96.877C335.169 95.4272 335.416 93.8698 335.873 92.2584L336.632 91.2575L337.521 91.2216C339.388 92.0385 339.549 94.3231 340.33 95.9344L340.528 96.096L341.165 96.1499C342.39 95.2656 341.771 93.6139 342.844 92.6175L343.207 92.42H343.477C344.801 93.3805 345.142 95.2656 346.578 96.3877C346.942 96.6032 347.355 96.8366 347.862 96.9982L349.006 96.877C349.855 96.5134 350.164 95.3734 351.071 95.0278L351.322 94.9919C352.341 95.4272 352.341 96.9622 353.495 97.3123C354.271 97.4919 355.178 97.622 355.972 97.4201L356.713 96.9982C357.588 95.5529 359.383 95.1893 360.977 95.1175L361.264 94.8078L361.246 94.4488L360.995 94.1929C360.326 93.8877 359.581 94.0134 358.858 93.8698L358.19 93.3087C357.934 91.4191 358.095 88.9236 356.138 87.9496C355.03 87.3706 353.926 87.8913 353.046 88.3984C350.999 90.0816 350.941 93.2504 348.768 94.8482C348.405 95.0278 347.934 95.0278 347.503 94.9156L347.045 94.5744C346.776 93.4119 346.179 92.2584 345.959 91.06L345.559 90.0636C345.344 89.6507 345.016 89.3589 344.747 88.9999L344.401 88.7979C343.405 88.4747 342.247 88.7979 341.574 89.5968L341.053 90.1758L339.895 90.2297L339.567 90.0143C338.755 89.1435 337.323 88.7979 336.161 88.9999C334.083 89.6327 334.311 92.3258 332.539 93.3087C331.775 93.5062 331.071 92.797 330.254 92.9452C329.208 93.2324 329.226 94.4847 328.319 94.9156H327.938L327.413 94.7181C326.87 94.1032 326.982 93.2324 327.251 92.4873C327.543 92.0026 327.938 91.6749 328.288 91.4191L330.819 90.9164L331.977 90.5573L332.157 90.4137L332.229 89.7764L331.524 89.1974C330.891 88.9236 330.254 89.1974 329.59 89.0358L328.557 89.0717C327.345 89.4846 326.075 90.2836 325.46 91.5448L325.33 92.0744C324.827 93.6857 323.593 95.1175 321.852 95.4272C321.183 95.3734 320.604 95.1893 320.254 94.6642L320.204 94.3231C321.511 93.0708 323.737 92.5816 323.921 90.2836C324.177 89.5205 323.898 88.7979 323.396 88.3625C322.256 87.4559 320.73 87.2584 319.549 87.6399C318.23 88.0214 317.359 88.9999 316.695 89.9424L316.187 91.4191L315.806 91.8006L315.424 91.841L315.025 91.5807L314.845 91.2216C314.661 90.5573 314.845 89.9424 314.845 89.2512C314.41 88.2728 314.54 87.2943 314.118 86.2799C314.046 85.8446 314.082 85.5708 314.046 85.2117C313.126 82.8957 312.072 80.2476 309.41 79.5743C307.906 79.2736 306.295 79.7224 305.249 80.665C304.922 81.1722 304.706 81.639 304.468 82.0788C303.746 84.4846 304.648 87.007 305.77 89.1974C306.551 90.5394 307.561 91.5134 308.633 92.4873L308.719 92.7073L308.701 93.5062L307.74 94.1436L307.359 94.2109L303.746 95.8087L303.18 96.3877L302.404 96.9802C301.187 98.0888 300.806 99.9919 300.792 101.675C300.99 102.344 300.954 103.107 301.08 103.879C301.681 105.535 303.126 106.527 304.832 106.891L305.249 106.926Z" fill="white"/>
<g clip-path="url(#clip1_490_153)">
<path fill-rule="evenodd" clip-rule="evenodd" d="M418.927 106.453C418.454 105.858 417.815 105.055 416.375 105.055C414.623 105.055 413.418 106.412 413.418 108.797C413.418 111.162 414.813 112.313 416.28 112.313C417.651 112.313 418.502 111.534 418.927 111.12V106.453ZM411.22 115.026C411.55 115.44 411.761 115.708 411.999 115.934C412.615 116.469 413.65 116.996 414.974 117.022C416.598 117.055 417.458 116.359 417.812 116.05C418.969 115.044 418.951 113.59 418.927 112.313C418.737 112.519 418.549 112.703 418.335 112.87C417.58 113.485 416.324 113.979 415.024 113.979C412.639 113.979 410.06 112.233 410.06 108.797C410.06 105.528 412.305 103.41 415.286 103.41C417.484 103.41 418.43 104.46 418.927 104.992V103.841H422.095V112.869C422.071 114.226 422.071 115.918 420.629 117.123C419.174 118.34 417.571 118.694 415.607 118.694C413.742 118.694 412.472 118.03 411.597 117.269C410.815 116.591 410.604 115.829 410.461 115.335L411.22 115.026Z" fill="white"/>
<path fill-rule="evenodd" clip-rule="evenodd" d="M438.112 109.577C437.496 109.372 436.883 109.187 436.08 109.187C434.685 109.187 433.453 109.824 433.453 111.16C433.453 112.067 434.045 113.031 435.628 113.031C436.741 113.031 437.496 112.62 438.112 112.269V109.577ZM441.164 114.411H438.112V113.218C437.591 113.691 436.41 114.717 434.164 114.717C431.704 114.717 430.146 113.236 430.146 111.347C430.146 108.92 432.436 107.563 435.25 107.563C436.41 107.563 437.166 107.769 438.112 108.015C438.088 107.48 438.04 106.924 437.782 106.412C437.214 105.3 435.866 105.035 434.968 105.035C432.957 105.035 432.106 106.04 431.633 106.597L430.83 106.246C431.35 105.24 432.296 103.428 435.89 103.428C437.948 103.428 439.272 104.026 439.956 104.642C441.14 105.692 441.164 107.09 441.164 108.057L441.164 114.411Z" fill="white"/>
<path fill-rule="evenodd" clip-rule="evenodd" d="M454.871 114.407H451.703V107.581C451.703 107.233 451.703 106.864 451.584 106.513C451.397 105.918 450.805 105.278 449.668 105.278C448.368 105.278 447.589 106.04 447.045 106.575V114.408H443.9V103.88H447.045V105.257C447.66 104.642 448.701 103.574 450.995 103.574C452.247 103.574 453.265 103.963 453.901 104.538C454.8 105.362 454.871 106.412 454.871 107.295L454.871 114.407Z" fill="white"/>
<path fill-rule="evenodd" clip-rule="evenodd" d="M460.851 111.985C461.3 112.458 462.008 113.198 463.355 113.198C464.587 113.198 466.431 112.478 466.431 109.022C466.431 108.344 466.36 107.398 465.887 106.577C465.414 105.732 464.632 105.137 463.427 105.137C461.606 105.137 460.851 106.493 460.851 106.514L460.851 111.985ZM457.68 99.8923H460.851V105.074C461.324 104.542 462.29 103.45 464.587 103.45C467.824 103.45 469.739 105.773 469.739 109.046C469.739 113.279 466.738 114.882 464.373 114.882C462.314 114.882 461.252 113.752 460.851 113.32V114.412H457.68V99.8923Z" fill="white"/>
<path fill-rule="evenodd" clip-rule="evenodd" d="M471.959 103.881H475.103V114.409H471.959V103.881Z" fill="white"/>
<path fill-rule="evenodd" clip-rule="evenodd" d="M485.366 109.577C484.75 109.372 484.137 109.187 483.331 109.187C481.939 109.187 480.707 109.824 480.707 111.16C480.707 112.067 481.299 113.031 482.882 113.031C483.994 113.031 484.75 112.62 485.366 112.269V109.577ZM488.418 114.411H485.366V113.218C484.845 113.691 483.664 114.717 481.415 114.717C478.958 114.717 477.396 113.236 477.396 111.347C477.396 108.92 479.69 107.563 482.504 107.563C483.664 107.563 484.42 107.769 485.366 108.015C485.342 107.48 485.294 106.924 485.036 106.412C484.468 105.3 483.12 105.035 482.222 105.035C480.211 105.035 479.36 106.04 478.887 106.597L478.084 106.246C478.601 105.24 479.547 103.428 483.144 103.428C485.199 103.428 486.523 104.026 487.21 104.642C488.391 105.692 488.418 107.09 488.418 108.057L488.418 114.411Z" fill="white"/>
<path fill-rule="evenodd" clip-rule="evenodd" d="M427.831 109.492V110.789C427.848 111.827 427.78 112.672 428.054 113.151C428.158 113.335 428.476 113.523 429.279 113.552V113.544V114.4L429.25 114.402C427.709 114.402 426.632 114.483 425.969 114.153C425.273 113.805 424.808 113.293 424.731 112.195C424.675 111.437 424.698 109.512 424.698 109.512V99.8948H427.831L427.831 109.492Z" fill="white"/>
<path fill-rule="evenodd" clip-rule="evenodd" d="M473.516 102.742C474.495 102.742 475.286 101.951 475.286 100.975C475.286 99.9993 474.495 99.2051 473.516 99.2051C472.54 99.2051 471.749 99.9993 471.749 100.975C471.749 101.951 472.54 102.742 473.516 102.742Z" fill="white"/>
<path fill-rule="evenodd" clip-rule="evenodd" d="M494.07 74.5893L494.111 74.5358H494.114C492.445 73.7475 490.58 73.3042 488.613 73.3042C481.503 73.3042 475.741 79.0664 475.741 86.1727C475.741 93.2795 481.503 99.0447 488.613 99.0447C495.72 99.0447 501.482 93.2796 501.482 86.1727C501.482 83.8376 500.842 81.1989 499.759 79.7532C500.417 81.1098 500.798 82.6357 500.798 84.2451C500.798 89.9299 496.19 94.5407 490.502 94.5407C484.814 94.5407 480.206 89.9299 480.206 84.2451C480.206 78.5574 484.814 73.9495 490.502 73.9495C491.763 73.9495 492.965 74.1756 494.08 74.5891L494.07 74.5893Z" fill="white"/>
<path fill-rule="evenodd" clip-rule="evenodd" d="M495.809 87.9162C498.593 87.9162 500.848 85.6584 500.848 82.874C500.848 80.0926 498.593 77.8347 495.809 77.8347C493.024 77.8347 490.77 80.0926 490.77 82.874C490.77 85.6584 493.024 87.9162 495.809 87.9162Z" fill="white"/>
</g>
<g clip-path="url(#clip2_490_153)">
<path d="M575.122 86.5084C578.449 87.8705 581.946 91.197 581.682 96.5885C581.575 98.7839 580.822 100.742 579.406 102.432C578.241 103.824 576.799 104.835 575.089 105.581C575.089 105.407 575.089 105.29 575.089 105.169C575.089 103.653 575.082 102.137 575.095 100.618C575.105 99.3395 574.784 98.1715 574.045 97.1273C573.392 96.2036 572.535 95.5243 571.488 95.0959C569.135 94.1388 566.782 93.1816 564.43 92.2211C563.315 91.766 562.629 90.9427 562.381 89.7613C562.314 89.4434 562.331 89.1154 562.338 88.7941C562.345 88.3156 562.304 87.837 562.412 87.3618C562.75 85.8825 564.122 84.7781 565.725 84.8417C567.231 84.902 568.536 86.0365 568.79 87.5391C568.827 87.75 568.84 87.9575 568.84 88.1717C568.84 89.5103 568.84 90.849 568.844 92.1876C568.844 92.4989 568.8 92.5022 569.145 92.5022C571.029 92.5022 572.913 92.5022 574.801 92.5022C575.102 92.5022 575.092 92.5223 575.092 92.2111C575.092 90.4373 575.092 88.6636 575.092 86.8899C575.092 86.7761 575.069 86.6523 575.122 86.5084Z" fill="white"/>
<path d="M556.076 105.548C552.736 104.185 549.205 100.932 549.503 95.3736C549.747 90.8557 552.893 87.7566 556.069 86.5217C556.069 87.0672 556.069 87.5994 556.069 88.1315C556.069 89.2359 556.066 90.3403 556.076 91.4447C556.089 92.867 556.531 94.1354 557.451 95.2297C558.064 95.9593 558.813 96.5048 559.7 96.8663C562.053 97.8201 564.409 98.7705 566.762 99.7277C567.779 100.139 568.435 100.879 568.733 101.936C568.763 102.044 568.79 102.154 568.8 102.264C568.86 103.054 568.92 103.847 568.756 104.631C568.452 106.083 567.113 107.147 565.62 107.161C564.101 107.174 562.766 106.137 562.418 104.671C562.344 104.363 562.334 104.055 562.334 103.74C562.331 102.445 562.327 101.153 562.324 99.8582C562.324 99.8013 562.321 99.7477 562.324 99.6908C562.341 99.5168 562.267 99.4599 562.093 99.4633C561.591 99.4733 561.089 99.4666 560.587 99.4666C559.215 99.4666 557.843 99.47 556.471 99.47C556.394 99.47 556.313 99.4733 556.236 99.47C556.123 99.4666 556.072 99.5202 556.076 99.6306C556.079 99.721 556.076 99.808 556.076 99.8983C556.076 101.649 556.076 103.399 556.072 105.149C556.076 105.27 556.076 105.394 556.076 105.548Z" fill="white"/>
<path fill-rule="evenodd" clip-rule="evenodd" d="M645.844 96.2501C645.789 96.2187 645.734 96.1871 645.678 96.1546C645.706 96.0925 645.755 96.0618 645.805 96.0309C645.822 96.0202 645.839 96.0094 645.856 95.9973C646.415 95.6359 646.823 95.1473 647.094 94.5415C647.529 93.571 647.546 92.5737 647.231 91.5731C646.753 90.0436 645.608 89.2137 644.012 89.2137H637.389C637.36 89.2137 637.334 89.2134 637.311 89.2131C637.21 89.2119 637.156 89.2113 637.127 89.2378C637.094 89.2684 637.094 89.3349 637.094 89.4778L637.094 89.4981V89.6989V100.438C637.094 100.647 637.094 100.855 637.094 101.064C637.093 101.48 637.092 101.896 637.094 102.312C637.098 102.587 637.098 102.59 637.365 102.59H639.507H639.675C639.758 102.594 639.798 102.55 639.798 102.47V102.202V97.6539C639.798 97.6191 639.798 97.5882 639.797 97.5606C639.793 97.3524 639.793 97.3394 640.103 97.3394C640.538 97.341 640.973 97.341 641.408 97.341C641.843 97.341 642.278 97.341 642.713 97.3427C642.901 97.3427 643.095 97.3527 643.279 97.3896C643.952 97.5201 644.577 97.8681 644.527 98.8487C644.516 99.0572 644.518 99.2657 644.521 99.4743C644.523 99.5669 644.524 99.6596 644.524 99.7523C644.525 99.9604 644.526 100.168 644.526 100.376C644.528 100.792 644.529 101.209 644.534 101.626C644.537 101.924 644.624 102.195 644.805 102.436C644.882 102.537 644.972 102.597 645.113 102.597C645.682 102.592 646.25 102.593 646.819 102.593C647.009 102.593 647.199 102.594 647.389 102.594L647.407 102.594C647.455 102.594 647.507 102.595 647.543 102.553C647.606 102.48 647.559 102.008 647.472 101.958C647.02 101.7 646.947 101.278 646.95 100.81C646.953 100.373 646.953 99.9374 646.952 99.5015C646.952 98.9785 646.951 98.4556 646.957 97.9317C646.964 97.2691 646.686 96.7738 646.137 96.4224C646.04 96.3623 645.942 96.3064 645.844 96.2501ZM642.278 91.6058C642.122 91.6062 641.966 91.6065 641.81 91.6065C641.614 91.6065 641.417 91.6062 641.22 91.6058C640.826 91.605 640.431 91.6043 640.036 91.6065C639.802 91.6065 639.798 91.6132 639.798 91.8475V94.6855C639.798 94.9632 639.802 94.9666 640.1 94.9666C640.404 94.9666 640.708 94.9657 641.012 94.9648C641.721 94.9627 642.429 94.9605 643.138 94.9699C643.731 94.98 644.162 94.7089 644.47 94.2303C644.778 93.7517 644.859 93.2196 644.761 92.6607C644.654 92.0282 644.31 91.7002 643.677 91.63C643.523 91.6099 643.369 91.6065 643.212 91.6065C642.9 91.6043 642.589 91.605 642.278 91.6058Z" fill="white"/>
<path d="M659.249 101.329C659.156 101.315 659.135 101.376 659.102 101.419C658.416 102.283 657.496 102.751 656.428 102.928C655.474 103.089 654.517 103.039 653.573 102.815C653.034 102.684 652.553 102.436 652.128 102.078C650.638 100.817 649.802 99.2036 649.554 97.2759C649.356 95.7097 649.494 94.1836 650.099 92.7178C650.648 91.3891 651.505 90.3215 652.79 89.6288C653.376 89.3109 654.005 89.1234 654.664 89.0599C655.769 88.9528 656.876 88.9595 657.931 89.3577C659.671 90.0203 660.718 91.2921 661.113 93.106C661.21 93.5578 661.194 93.5611 660.732 93.5611C660.129 93.5611 659.527 93.5544 658.925 93.5645C658.751 93.5678 658.667 93.5143 658.617 93.3469C658.49 92.9386 658.275 92.5738 657.977 92.2626C657.486 91.7472 656.873 91.4862 656.177 91.4025C655.337 91.3021 654.534 91.3858 653.798 91.8476C653.309 92.1522 652.964 92.5805 652.703 93.0825C652.399 93.6749 652.228 94.3074 652.141 94.96C652.01 95.9306 652.024 96.8977 652.302 97.8415C652.543 98.6614 652.994 99.3575 653.63 99.9298C655.063 101.212 657.087 100.71 658.075 99.5818C658.483 99.1166 658.767 98.6012 658.804 97.9687C658.818 97.7344 658.814 97.7277 658.573 97.7277C657.803 97.7244 657.034 97.7277 656.264 97.7277C655.976 97.7277 655.983 97.7478 655.983 97.4633C655.983 96.8375 655.99 96.215 655.98 95.5892C655.976 95.4152 656.026 95.3616 656.204 95.3616C657.777 95.3683 659.35 95.365 660.919 95.365C661.147 95.365 661.15 95.3683 661.153 95.6059C661.153 97.0651 661.153 98.5276 661.153 99.9867C661.153 100.79 661.153 101.593 661.153 102.396C661.153 102.627 661.15 102.631 660.913 102.634C660.534 102.637 660.153 102.641 659.775 102.641C659.507 102.641 659.507 102.637 659.457 102.383C659.39 102.032 659.316 101.677 659.249 101.329Z" fill="white"/>
<path d="M625.009 95.8905C625.009 93.8055 625.009 91.7172 625.009 89.6322C625.009 89.5552 625.012 89.4749 625.009 89.3979C624.999 89.2741 625.043 89.2072 625.176 89.2172C625.243 89.2239 625.31 89.2172 625.377 89.2172C628.222 89.2172 631.067 89.2172 633.911 89.2172C633.968 89.2172 634.022 89.2206 634.079 89.2172C634.229 89.2038 634.299 89.244 634.296 89.418C634.286 90.0873 634.289 90.7567 634.293 91.426C634.293 91.5498 634.253 91.6168 634.122 91.6067C634.045 91.6034 633.965 91.6067 633.888 91.6067C631.97 91.6067 630.049 91.6067 628.131 91.6067C628.055 91.6067 627.974 91.6134 627.897 91.6067C627.76 91.5933 627.727 91.6603 627.73 91.7841C627.733 92.1957 627.733 92.6107 627.73 93.0224C627.73 93.4474 627.737 93.8691 627.727 94.2941C627.723 94.4715 627.783 94.5183 627.954 94.5183C629.025 94.5116 630.096 94.515 631.167 94.515C631.947 94.515 632.73 94.515 633.51 94.515C633.774 94.515 633.777 94.5183 633.777 94.7928C633.777 95.4052 633.781 96.021 633.777 96.6334C633.777 96.9012 633.774 96.9045 633.5 96.9045C631.726 96.9045 629.952 96.9045 628.178 96.9045C628.101 96.9045 628.021 96.9145 627.944 96.9012C627.757 96.8744 627.727 96.9647 627.727 97.1287C627.733 98.0658 627.73 99.0029 627.73 99.9399C627.73 100.201 627.733 100.204 628.008 100.204C630.073 100.204 632.134 100.204 634.199 100.204C634.614 100.204 634.574 100.144 634.574 100.572C634.577 101.141 634.574 101.71 634.574 102.279C634.574 102.641 634.587 102.594 634.239 102.594C632.164 102.594 630.089 102.594 628.014 102.594C627.111 102.594 626.207 102.594 625.304 102.594C625.002 102.594 624.999 102.59 624.999 102.279C625.009 100.151 625.009 98.0189 625.009 95.8905Z" fill="white"/>
<path d="M588.397 98.5377C588.765 98.5377 589.133 98.5444 589.501 98.5343C589.655 98.531 589.719 98.5711 589.719 98.7385C589.715 99.4346 590.097 99.9098 590.652 100.261C591.104 100.546 591.613 100.663 592.145 100.686C592.798 100.716 593.433 100.649 594.046 100.402C594.652 100.157 594.953 99.6923 594.993 99.0664C595.033 98.4306 594.759 97.942 594.197 97.6341C593.611 97.3161 592.968 97.1823 592.322 97.0517C591.569 96.8978 590.806 96.7974 590.067 96.5866C589.635 96.4661 589.223 96.3054 588.839 96.0745C587.958 95.5457 587.45 94.766 587.333 93.7519C587.242 92.9889 587.326 92.2359 587.61 91.5197C588.065 90.3718 588.919 89.6456 590.08 89.3009C591.61 88.8491 593.142 88.8892 594.645 89.4347C595.743 89.833 596.559 90.5525 596.971 91.6803C597.152 92.1723 597.172 92.681 597.195 93.193C597.202 93.3202 597.155 93.3738 597.021 93.3704C596.285 93.3671 595.549 93.3671 594.812 93.3704C594.695 93.3704 594.628 93.3436 594.622 93.2064C594.581 92.2259 593.986 91.7071 593.116 91.436C592.463 91.2319 591.794 91.2252 591.134 91.3758C590.535 91.513 590.067 91.8243 589.899 92.4635C589.822 92.758 589.826 93.0625 589.876 93.3604C589.916 93.6047 590.063 93.7821 590.281 93.9059C590.495 94.0297 590.726 94.11 590.964 94.1736C592.105 94.4815 593.256 94.7325 594.411 94.9835C594.936 95.0973 595.435 95.2814 595.917 95.5223C596.844 95.9875 597.373 96.7472 597.553 97.7512C597.767 98.9526 597.536 100.077 596.904 101.118C596.633 101.563 596.268 101.914 595.816 102.182C595.083 102.614 594.29 102.858 593.45 102.939C593.005 102.982 592.56 103.005 592.115 103.009C591.265 103.015 590.445 102.865 589.675 102.52C588.216 101.868 587.409 100.7 587.118 99.1534C587.085 98.9694 586.981 98.7385 587.095 98.6012C587.222 98.4473 587.473 98.551 587.667 98.5443C587.905 98.531 588.152 98.5377 588.397 98.5377Z" fill="white"/>
<path d="M610.023 94.2371C610.023 95.6427 610.019 97.0483 610.023 98.4539C610.023 99.0161 609.962 99.5683 609.772 100.097C609.303 101.396 608.366 102.226 607.088 102.661C605.672 103.143 604.233 103.149 602.821 102.657C601.328 102.139 600.337 101.121 599.989 99.5449C599.909 99.1734 599.886 98.7953 599.886 98.4137C599.886 95.4586 599.886 92.5035 599.886 89.5451C599.886 89.4882 599.889 89.4346 599.886 89.3777C599.879 89.2707 599.916 89.2171 600.036 89.2171C600.839 89.2205 601.643 89.2205 602.446 89.2171C602.543 89.2171 602.59 89.2506 602.59 89.351C602.586 89.4413 602.59 89.5283 602.59 89.6187C602.59 92.4968 602.59 95.375 602.59 98.2531C602.59 98.5208 602.603 98.7919 602.667 99.0496C602.831 99.7357 603.269 100.184 603.938 100.385C604.571 100.576 605.213 100.586 605.853 100.418C606.77 100.177 607.282 99.5282 607.315 98.5811C607.318 98.4807 607.318 98.3803 607.318 98.2799C607.318 95.3783 607.318 92.4801 607.318 89.5785C607.318 89.1636 607.275 89.2171 607.667 89.2171C608.326 89.2138 608.982 89.2138 609.641 89.2171C610.063 89.2205 610.019 89.1535 610.019 89.5819C610.026 91.1347 610.023 92.6843 610.023 94.2371Z" fill="white"/>
<path fill-rule="evenodd" clip-rule="evenodd" d="M662.945 102.305C662.91 102.386 662.872 102.472 662.901 102.597C663.127 102.597 663.352 102.596 663.576 102.596C664.172 102.594 664.763 102.592 665.354 102.604C665.562 102.607 665.642 102.53 665.702 102.346C665.87 101.823 666.047 101.301 666.224 100.78C666.29 100.585 666.356 100.389 666.422 100.194C666.509 99.9331 666.509 99.9331 666.79 99.9331H671.371L671.413 99.9331C671.552 99.9328 671.615 99.9327 671.653 99.9635C671.684 99.9887 671.698 100.035 671.723 100.118C671.732 100.148 671.743 100.183 671.756 100.224C671.997 100.94 672.231 101.66 672.459 102.383C672.513 102.55 672.593 102.607 672.767 102.604C673.233 102.597 673.701 102.598 674.169 102.598C674.449 102.598 674.729 102.598 675.009 102.597C675.032 102.596 675.055 102.598 675.078 102.599C675.141 102.603 675.204 102.608 675.26 102.564C675.281 102.468 675.245 102.386 675.211 102.307C675.201 102.284 675.192 102.262 675.183 102.239C674.864 101.319 674.543 100.399 674.223 99.4796C673.902 98.5601 673.582 97.6406 673.262 96.7203C672.844 95.5172 672.425 94.3132 672.006 93.1093L672.005 93.1073C671.586 91.904 671.167 90.7007 670.749 89.4982C670.652 89.2204 670.649 89.2204 670.354 89.2204H667.877C667.847 89.2204 667.819 89.2202 667.794 89.22C667.672 89.2191 667.615 89.2186 667.58 89.246C667.549 89.27 667.534 89.3155 667.506 89.401C667.495 89.4346 667.482 89.4745 667.466 89.5216C665.965 93.7577 664.47 97.9939 662.976 102.23L662.971 102.242C662.964 102.263 662.955 102.284 662.945 102.305ZM667.292 97.5804H671.067C670.815 96.8731 670.565 96.1723 670.317 95.4755C669.925 94.3756 669.536 93.2856 669.149 92.1956H669.086L669.08 92.2116L669.08 92.2133C668.486 93.9946 667.892 95.7758 667.292 97.5804Z" fill="white"/>
<path fill-rule="evenodd" clip-rule="evenodd" d="M613.076 89.5785V95.9003C613.076 96.5765 613.075 97.2526 613.075 97.9287C613.074 99.2804 613.074 100.632 613.076 101.981C613.076 102.035 613.069 102.092 613.062 102.151C613.044 102.303 613.025 102.459 613.129 102.554C613.22 102.637 613.365 102.62 613.508 102.604C613.566 102.597 613.624 102.59 613.678 102.59C613.963 102.593 614.247 102.593 614.531 102.593C614.872 102.592 615.213 102.592 615.552 102.597C615.73 102.6 615.797 102.54 615.777 102.369C615.772 102.325 615.774 102.28 615.775 102.236C615.776 102.213 615.777 102.191 615.777 102.169V98.2564C615.777 98.2309 615.777 98.205 615.778 98.1789C615.78 98.1265 615.781 98.0736 615.777 98.0221C615.767 97.8849 615.84 97.8481 615.961 97.8548C616.012 97.857 616.065 97.8563 616.117 97.8555C616.144 97.8552 616.169 97.8548 616.195 97.8548C616.514 97.8537 616.833 97.8548 617.153 97.8559C617.792 97.8581 618.432 97.8604 619.07 97.8448C620.857 97.8012 622.052 96.7537 622.584 95.1942C622.965 94.0764 622.969 92.9118 622.641 91.7706C622.296 90.5658 621.543 89.7224 620.301 89.381C619.849 89.2572 619.381 89.2204 618.912 89.2204H613.427C613.38 89.2204 613.339 89.2196 613.303 89.2188C613.194 89.2166 613.136 89.2154 613.106 89.2435C613.074 89.2744 613.074 89.3407 613.075 89.4799C613.076 89.5094 613.076 89.5421 613.076 89.5785ZM615.778 93.05C615.777 93.2125 615.777 93.3751 615.777 93.5376C615.777 93.7274 615.777 93.9171 615.777 94.1068C615.778 94.4857 615.779 94.8641 615.777 95.2411C615.777 95.3816 615.793 95.472 615.971 95.472C616.5 95.4662 617.029 95.4649 617.558 95.4635C617.955 95.4625 618.351 95.4615 618.748 95.4586C619.053 95.4586 619.307 95.3247 619.528 95.1239C619.762 94.9097 619.93 94.6487 620.04 94.3508C620.174 93.9928 620.238 93.6146 620.228 93.2364C620.201 92.2157 619.686 91.6099 618.648 91.6099C617.768 91.6099 616.884 91.6099 616.004 91.6032C615.83 91.5999 615.77 91.6501 615.773 91.8308C615.78 92.2372 615.779 92.6436 615.778 93.05Z" fill="white"/>
</g>
<g clip-path="url(#clip3_490_153)">
<path d="M774.707 94.595L774.392 95.9772C774.368 96.0895 774.256 96.1454 774.147 96.0895L772.511 95.3043C772.385 95.2483 772.385 95.1459 772.509 95.0871C773.145 94.7848 773.818 94.5665 774.51 94.4379C774.65 94.4099 774.738 94.4856 774.707 94.595ZM771.604 93.524L771.291 94.9062C771.263 95.0183 771.156 95.0744 771.047 95.0183L769.41 94.2333C769.283 94.1744 769.283 94.0735 769.41 94.0146C770.044 93.7103 770.716 93.4925 771.409 93.3669C771.545 93.3389 771.637 93.4132 771.605 93.5211M770.633 97.8292C770.611 97.9442 770.503 97.9917 770.391 97.9413L768.755 97.1563C768.629 97.1001 768.615 96.9979 768.754 96.939C769.384 96.6348 770.057 96.4161 770.753 96.2884C770.893 96.2661 770.983 96.3389 770.955 96.447L770.633 97.8292ZM768.35 92.9926L768.032 94.3721C768.008 94.4884 767.901 94.5403 767.789 94.4884L766.154 93.7034C766.028 93.6472 766.024 93.545 766.15 93.4847C766.784 93.1819 767.458 92.9632 768.155 92.8343C768.291 92.8118 768.382 92.886 768.351 92.9941M767.696 95.8357L767.378 97.2137C767.353 97.3314 767.245 97.3819 767.136 97.3314L765.498 96.5437C765.375 96.4876 765.358 96.3824 765.496 96.3235C766.132 96.0215 766.805 95.8037 767.497 95.6759C767.635 95.6479 767.722 95.7236 767.694 95.8357M767.046 98.7404L766.728 100.12C766.704 100.236 766.595 100.288 766.484 100.236L764.848 99.4484C764.724 99.3922 764.722 99.2886 764.845 99.2297C765.481 98.9265 766.153 98.7084 766.846 98.5805C766.983 98.5526 767.075 98.6297 767.046 98.7404ZM764.649 94.3021C764.628 94.4183 764.52 94.4703 764.41 94.4183L762.77 93.6333C762.644 93.5745 762.641 93.4763 762.767 93.4159C763.403 93.1106 764.077 92.8917 764.771 92.7655C764.907 92.7417 764.995 92.8118 764.967 92.9253L764.645 94.3033M764.316 95.7431L764 97.1254C763.972 97.2376 763.865 97.2909 763.754 97.2376L762.118 96.4525C761.992 96.3936 761.992 96.2926 762.115 96.2338C762.746 95.9297 763.422 95.711 764.117 95.5833C764.258 95.5596 764.346 95.6338 764.316 95.7431ZM763.686 98.61L763.37 99.9909C763.346 100.103 763.237 100.156 763.128 100.103L761.49 99.318C761.367 99.2591 761.364 99.1597 761.488 99.1021C762.123 98.7958 762.796 98.576 763.489 98.4489C763.627 98.4249 763.717 98.4994 763.686 98.61ZM761.03 94.6917L759.39 93.9067C759.268 93.8478 759.264 93.7454 759.389 93.6866C760.024 93.3852 760.695 93.1678 761.394 93.0389C761.528 93.0136 761.618 93.0866 761.59 93.1972L761.272 94.5782C761.244 94.6903 761.137 94.7437 761.029 94.6903M760.931 96.0642L760.614 97.4465C760.589 97.5628 760.479 97.6119 760.372 97.5586L758.736 96.7736C758.595 96.7132 758.605 96.6152 758.731 96.5549C759.366 96.2493 760.038 96.0319 760.736 95.9057C760.873 95.8834 760.96 95.9562 760.932 96.0628M760.299 98.9506L759.98 100.332C759.957 100.448 759.85 100.5 759.742 100.447L758.102 99.6614C757.978 99.6025 757.976 99.5031 758.098 99.4442C758.736 99.1386 759.406 98.9199 760.102 98.795C760.24 98.7698 760.329 98.8455 760.299 98.9536M757.589 95.261L755.953 94.4758C755.827 94.4198 755.821 94.3357 755.949 94.2585C756.584 93.9548 757.257 93.7368 757.951 93.6109C758.091 93.5871 758.178 93.6586 758.149 93.7707L757.831 95.1487C757.809 95.2664 757.698 95.3169 757.589 95.2637M757.136 98.1741C757.112 98.2861 757.006 98.3423 756.895 98.2861L755.26 97.4984C755.138 97.4423 755.131 97.3441 755.257 97.2824C755.891 96.9769 756.564 96.7582 757.258 96.6333C757.395 96.6095 757.488 96.6796 757.458 96.7918L757.136 98.1713M756.484 101.062C756.46 101.177 756.352 101.227 756.242 101.177L754.606 100.392C754.479 100.336 754.477 100.233 754.603 100.173C755.236 99.8704 755.911 99.6517 756.605 99.5255C756.741 99.5031 756.832 99.5731 756.805 99.6839L756.483 101.063M754.439 95.9267C754.415 96.0432 754.307 96.095 754.2 96.0418L752.56 95.2567C752.437 95.2034 752.43 95.0982 752.557 95.0408C753.191 94.738 753.861 94.522 754.559 94.3917C754.699 94.3664 754.786 94.4408 754.758 94.5529L754.439 95.9297M754.038 97.703L753.718 99.0825C753.693 99.1946 753.584 99.2507 753.474 99.1946L751.84 98.4096C751.713 98.3534 751.699 98.2512 751.837 98.1923C752.473 97.8903 753.145 97.6721 753.837 97.5432C753.977 97.5194 754.067 97.5937 754.038 97.703ZM753.379 100.689L753.062 102.066C753.037 102.181 752.93 102.234 752.82 102.181L751.184 101.396C751.057 101.339 751.057 101.241 751.179 101.18C751.813 100.877 752.486 100.658 753.184 100.531C753.319 100.503 753.411 100.578 753.38 100.691M750.804 96.9824L749.163 96.2001C749.04 96.1442 749.023 96.039 749.161 95.9801C749.797 95.6777 750.47 95.4586 751.162 95.3282C751.303 95.3058 751.391 95.3758 751.363 95.4881L751.043 96.8675C751.021 96.9838 750.913 97.0358 750.802 96.9796M750.665 98.5259L750.347 99.9083C750.321 100.02 750.213 100.076 750.104 100.02L748.469 99.2354C748.346 99.1792 748.34 99.0783 748.465 99.0152C749.101 98.7129 749.773 98.4946 750.466 98.3661C750.606 98.3408 750.697 98.418 750.666 98.5246M747.708 97.1031C747.683 97.2208 747.575 97.2713 747.466 97.2208L745.828 96.4356C745.688 96.3797 745.688 96.2773 745.825 96.2157C746.459 95.9141 747.132 95.6969 747.83 95.5707C747.965 95.5427 748.054 95.617 748.026 95.7249L747.708 97.1073M747.052 100.001C747.028 100.117 746.919 100.169 746.808 100.117L745.174 99.3321C745.047 99.2717 745.044 99.1723 745.169 99.1105C745.807 98.8098 746.48 98.5922 747.173 98.4628C747.31 98.439 747.4 98.512 747.373 98.6213L747.051 100.002M743.902 94.4127C743.78 94.3567 743.779 94.2543 743.902 94.1969C744.536 93.8912 745.208 93.6725 745.904 93.545C746.038 93.5211 746.128 93.594 746.104 93.7034L745.786 95.0856C745.762 95.2006 745.653 95.2538 745.544 95.1979L743.902 94.4127ZM744.076 98.4727C744.052 98.5847 743.943 98.6409 743.833 98.5847L742.193 97.7997C742.071 97.7436 742.067 97.6399 742.19 97.581C742.824 97.2782 743.498 97.0595 744.192 96.9361C744.332 96.9081 744.421 96.9811 744.395 97.0764L744.073 98.46M740.519 95.1558C740.396 95.0955 740.393 94.9973 740.516 94.9357C741.147 94.6328 741.823 94.4127 742.518 94.2838C742.656 94.26 742.745 94.3315 742.719 94.4408L742.396 95.8231C742.371 95.9394 742.265 95.9913 742.154 95.9381L740.519 95.1558ZM740.163 92.1879C740.801 91.8857 741.475 91.6675 742.169 91.5388C742.305 91.5108 742.396 91.5865 742.365 91.6959L742.047 93.0753C742.019 93.1917 741.913 93.2464 741.803 93.1917L740.163 92.4066C740.041 92.3506 740.04 92.2524 740.16 92.1893M740.945 89.464C741.58 89.1599 742.253 88.9421 742.946 88.8163C743.083 88.7883 743.173 88.8626 743.148 88.9565L742.828 90.3374C742.804 90.4538 742.695 90.5099 742.584 90.4538L740.948 89.6659C740.826 89.6098 740.808 89.5075 740.947 89.45M743.033 87.0948C743.664 86.7906 744.337 86.5733 745.037 86.4457C745.175 86.4205 745.262 86.4934 745.234 86.6027L744.918 87.9822C744.895 88.0972 744.784 88.1504 744.672 88.0972L743.036 87.3121C742.895 87.2532 742.909 87.1551 743.033 87.0948ZM745.783 91.0201L745.464 92.3981C745.439 92.5132 745.332 92.5706 745.221 92.5132L743.584 91.7281C743.46 91.672 743.444 91.5711 743.582 91.5094C744.216 91.2066 744.893 90.9907 745.587 90.8617C745.722 90.8379 745.811 90.908 745.783 91.0201ZM747.051 88.4028C747.191 88.3776 747.281 88.4504 747.251 88.5612L746.932 89.9407C746.909 90.0556 746.805 90.1089 746.693 90.0556L745.056 89.2706C744.93 89.2145 744.925 89.1121 745.052 89.0519C745.686 88.7481 746.358 88.5289 747.051 88.4028ZM745.747 85.2864C746.382 84.9829 747.055 84.7647 747.747 84.6373C747.883 84.6134 747.972 84.6863 747.946 84.7971L747.628 86.1766C747.604 86.2943 747.496 86.3448 747.386 86.2887L745.748 85.5036C745.622 85.4476 745.618 85.3438 745.746 85.2849M748.767 83.8704C749.402 83.5676 750.07 83.3517 750.768 83.2199C750.906 83.1961 750.996 83.269 750.965 83.377L750.648 84.7564C750.623 84.8728 750.515 84.9247 750.404 84.8728L748.768 84.0877C748.66 84.0302 748.654 83.9293 748.767 83.8704ZM787.095 92.2763C788.02 92.2776 788.588 92.98 788.69 93.2969L786.697 93.7271C786.301 93.8113 786.042 93.643 786.003 93.3347C785.952 92.9926 786.325 92.2692 787.093 92.2748M790.522 92.38C790.665 92.0197 790.964 91.7744 791.272 91.7744C791.823 91.7744 792.088 92.3716 792.085 92.5538L790.754 92.8343C790.379 92.9043 790.389 92.7039 790.522 92.366M805.481 103.511C804.91 103.154 804.408 103.11 803.887 102.953C803.179 102.743 802.953 101.882 802.691 101.781C802.161 101.579 801.673 102.38 801.353 102.275C801.034 102.169 800.902 101.121 800.641 101.024C800.131 100.836 799.58 101.641 799.258 101.536C798.935 101.431 798.764 100.396 798.505 100.302C797.972 100.109 797.425 100.944 797.107 100.84C796.789 100.737 796.696 99.6601 796.434 99.5619C795.866 99.3517 795.345 100.203 794.846 100.123C794.526 100.074 793.829 99.9573 792.911 99.3489L792.062 98.725C791.969 98.6899 791.734 98.6325 791.791 99.1008C791.926 100.198 793.832 100.988 796.025 101.617L801.756 103.454C802.574 103.828 802.925 104.275 802.631 104.71C802.402 105.046 801.84 105.069 801.229 104.783C800.574 104.474 800.507 103.961 800.093 103.866C799.588 103.748 798.948 104.699 798.547 104.609C798.032 104.49 797.975 103.398 797.521 103.277C796.918 103.117 796.249 104.041 795.852 103.957C795.456 103.873 795.306 102.706 794.927 102.611C794.293 102.449 793.647 103.417 793.249 103.333C792.851 103.249 792.628 102.099 792.293 101.968C791.662 101.715 790.817 102.66 789.943 102.202C787.111 100.309 787.658 99.3321 785.494 98.697C784.376 98.3703 782.984 98.7671 782.168 98.8512C780.252 99.0474 780.328 97.4071 780.328 97.4071C780.884 97.5333 781.664 97.8839 783.094 97.3581C784.641 96.7889 785.505 96.6894 787.524 97.3581C789.225 97.9259 790.239 97.4185 790.832 97.2671C791.126 97.1914 791.351 97.0328 791.9 97.3819C792.45 97.731 792.98 98.111 793.25 97.9821C793.668 97.7802 793.517 96.6726 794.239 96.4371C794.567 96.3292 795.464 97.2194 795.857 97.0707C796.249 96.9222 796.129 95.76 796.846 95.5245C797.177 95.4178 798.074 96.3067 798.465 96.1595C798.857 96.0123 798.739 94.8473 799.455 94.6103C799.786 94.5039 800.685 95.3955 801.074 95.2469C801.464 95.0982 801.348 93.9347 802.064 93.6964C802.392 93.5898 803.294 94.4814 803.683 94.3342C804.073 94.187 804.02 93.8857 804.337 93.0963C804.398 92.9421 804.513 92.788 804.673 92.6576C805.11 92.3015 805.774 91.5403 805.384 90.6865C805.029 89.9154 804.297 89.9393 802.689 90.2659L792.943 92.3716C791.634 89.9701 790.747 91.5557 788.802 91.3229C787.571 91.1772 785.581 89.9323 782.432 92.8132C780.738 92.3365 779.244 92.7598 778.128 93.3795C776.238 92.6156 772.635 90.786 765.787 90.786C763.85 90.786 759.23 91.1645 751.877 93.0851C749.995 93.5757 748.274 93.4706 747.857 92.3632C747.436 91.2038 748.931 89.9897 751.777 88.6383C758.832 85.2877 763.543 86.0784 773.029 81.1003C778.136 78.4493 778.47 75.3216 778.465 74.5618C778.465 74.0431 777.932 73.8692 777.623 74.2954C775.913 76.6618 775.473 76.4656 774.94 75.9356C774.228 75.2305 773.748 76.3506 772.984 76.917C772.404 77.3446 772.288 76.8287 771.817 76.5286C771.015 76.0141 770.338 77.5338 769.649 77.8394C768.85 78.1941 768.706 77.7974 768.434 77.517C768.243 77.3179 767.897 77.3235 767.649 77.559C766.031 79.0829 765.794 78.9091 765.311 78.4002C764.952 78.0217 764.755 77.7609 763.709 78.8109C763.107 79.418 762.094 80.1372 761.789 79.3801C761.483 78.6231 761.214 78.1787 759.732 79.5203C758.853 80.3138 758.255 80.3797 757.987 80.004C757.719 79.6283 757.763 78.5937 756.372 79.6773C755.127 80.6488 754.5 81.2334 754.09 80.2942C753.693 79.3857 752.776 80.1498 752.079 80.8073C751.715 81.1535 751.108 81.975 750.621 81.1395C750.135 80.2984 749.357 81.1676 748.357 82.2134C747.796 82.8022 747.418 82.5428 746.861 82.1517C746.221 81.6961 745.544 83.3223 744.613 84.2966C744.438 84.4578 744.184 84.577 743.623 84.1887C742.9 83.6938 741.75 86.2158 741.425 86.8341C740.892 87.8322 740.303 86.5719 739.681 87.4747C738.233 89.5832 736.682 91.9174 736.241 96.0529C735.713 101.002 737.564 105.029 739.443 106.511C739.443 106.511 739.214 107.065 738.952 107.762C738.426 109.155 738.209 110.966 738.885 112.234C739.536 113.459 741.062 115.5 741.628 113.574C741.903 112.639 742.161 112.688 743.072 113.326C744.446 114.285 744.109 112.537 744.384 112.019C744.578 111.655 744.816 111.515 745.947 112.255C746.598 112.675 746.807 112.105 746.999 111.306C747.596 108.838 746.42 108.236 745.26 108.001C744.415 107.833 743.525 107.973 743.525 107.973C745.375 105.177 745.605 103.65 743.526 102.235C743.835 102.095 744.09 102.165 744.353 102.277C744.865 102.492 745.293 102.88 745.563 103.354C745.851 103.856 746.32 104.976 745.367 106.965C745.767 106.965 747.302 107.061 747.993 108.62C748.901 108.91 754.771 109.372 757.334 108.962C758.266 108.813 758.687 107.98 759.619 107.12C760.632 106.183 761.813 105.167 762.864 105.928C761.07 106.657 759.808 108.038 759.808 109.789C759.808 111.104 760.369 111.632 761.305 112.413C762.163 113.121 762.43 114.243 762.744 115.116C763.145 116.226 763.988 116.261 764.176 115.207C764.436 113.749 764.88 114.021 765.448 114.642C766.14 115.396 766.679 115.281 766.682 114.194C766.683 113.166 766.994 112.657 768.154 113.846C768.623 114.328 769.191 114.309 769.181 113.26C769.17 111.977 769.75 112.101 770.476 112.65C770.729 112.842 770.904 112.98 771.04 112.972C771.611 112.942 771.986 111.843 771.548 110.972C771.329 110.551 771.009 109.887 768.048 109.283C767.078 109.086 767.245 108.418 767.245 108.418C774.475 108.766 780.602 107.865 784.632 105.437C789.583 106.621 796.828 106.734 799.206 106.703C801.583 106.672 803.397 106.569 804.888 105.862C806.458 105.115 806.219 103.981 805.495 103.529" fill="white"/>
</g>
<path d="M877.659 86.6453C877.659 88.6677 879.34 89.3934 881.055 89.3934C882.584 89.3934 883.976 89.0107 885.421 88.5938L885.262 92.1024C883.783 92.414 881.961 92.6601 880.459 92.6601C876.334 92.6601 872.736 91.4157 872.736 86.3107C872.736 84.936 873.275 79.1018 880.173 79.1018C884.424 79.1018 886.757 81.0969 886.757 84.7024C886.757 85.3508 886.705 85.9977 886.576 86.6453H877.659ZM881.987 84.2856C881.987 82.7847 881.365 82.006 880.122 82.006C878.721 82.006 877.944 83.1716 877.815 84.2856H881.987Z" fill="url(#paint0_linear_490_153)"/>
<path d="M894.437 82.4306C894.388 83.8785 894.2 85.4484 894.233 87.1529C894.253 88.1358 894.655 88.9494 895.748 88.9466C896.368 88.9466 896.705 88.8978 897.293 88.743L897.123 92.1861C896.016 92.4705 894.722 92.6476 893.582 92.6476C891.085 92.6476 889.412 91.9805 889.357 89.2178C889.314 87.1717 889.562 84.7394 889.596 82.4403L887.548 82.4334L887.709 79.0558L889.818 79.0537L889.928 76.7281L894.756 75.6252L894.575 79.0328H897.744L897.592 82.5135L894.437 82.4306Z" fill="url(#paint1_linear_490_153)"/>
<path d="M909.128 83.0351C908.019 82.6336 907.36 82.4976 906.221 82.4976C905.597 82.4976 904.434 82.4976 904.434 83.1474C904.434 84.5451 908.945 85.5852 908.945 88.9272C908.945 91.7805 905.701 92.661 903.396 92.661C900.892 92.661 899.248 92.1605 898.68 92.0427L898.851 88.5082C900.791 89.2709 901.107 89.2646 902.176 89.2646C902.745 89.2646 903.866 89.2381 903.866 88.4859C903.866 87.2695 899.349 85.8153 899.349 82.7842C899.349 80.6328 900.93 79.1013 904.589 79.1013C906.064 79.1013 907.607 79.3257 909.292 79.5997L909.128 83.0351Z" fill="url(#paint2_linear_490_153)"/>
<path d="M887.122 94.5229C886.837 97.4237 886.389 106.242 886.312 110.777H881.154C881.646 105.021 881.807 100.303 881.96 94.5229H887.122Z" fill="url(#paint3_linear_490_153)"/>
<path d="M896.542 107.192C895.662 107.641 894.884 107.927 894.163 107.927C893.468 107.927 892.738 107.696 892.738 106.899C892.738 105.378 895.72 105.273 896.679 104.605C896.635 105.413 896.593 106.297 896.542 107.192ZM896.267 97.1873C894.271 97.1873 892.082 97.5631 890.032 98.0253L889.91 101.03C891.595 100.409 893.231 99.9194 895.052 99.9194C895.747 99.9194 896.658 100.099 896.658 100.948C896.658 103.215 887.814 101.544 887.814 106.975C887.814 107.257 887.86 110.737 892.604 110.737C893.272 110.737 894.867 110.687 896.313 110.323C896.299 110.463 896.285 110.601 896.269 110.737L901.262 110.777C901.262 108.201 901.71 101.336 901.71 100.69C901.71 98.5544 900.363 97.1873 896.267 97.1873Z" fill="url(#paint4_linear_490_153)"/>
<path d="M914.316 101.46C913.253 101.098 912.376 100.936 911.259 100.936C909.266 100.936 907.993 102.103 907.993 104.122C907.993 106.066 909.032 107.079 910.972 107.079C912.061 107.079 913.073 106.837 914.086 106.476L913.908 110.285C912.639 110.598 911.003 110.785 909.705 110.785C905.477 110.785 903.07 108.502 903.07 104.227C903.07 102.854 903.404 97.2255 909.941 97.2255C911.621 97.2255 913.17 97.4389 914.489 97.7742L914.316 101.46Z" fill="url(#paint5_linear_490_153)"/>
<path d="M870.386 104.038C870.386 105.539 871.118 107.249 872.874 107.249C874.714 107.249 875.417 105.33 875.417 103.803C875.417 101.936 874.458 100.743 872.536 100.743C871.887 100.743 871.268 100.872 870.648 101.028C870.491 102.013 870.386 103.024 870.386 104.038ZM870.182 109.169L870.151 109.954C870.094 111.43 869.974 114.464 869.974 116.375H864.842C865.382 110.23 865.748 104.061 865.748 97.8919C868.086 97.5015 870.386 97.2171 873.291 97.2171C878.579 97.2171 880.341 100.459 880.341 103.983C880.341 107.328 878.499 110.778 874.77 110.778C873.083 110.778 871.505 110.23 870.182 109.169Z" fill="url(#paint6_linear_490_153)"/>
<path d="M861.291 85.9357C861.291 87.4429 862.018 89.1529 863.781 89.1529C865.622 89.1529 866.318 87.233 866.318 85.7022C866.318 83.838 865.36 82.6453 863.443 82.6453C862.789 82.6453 862.175 82.7763 861.55 82.9304C861.394 83.9161 861.291 84.9263 861.291 85.9357ZM861.116 91.0254L861.084 91.8124C861.026 93.2869 860.909 96.3187 860.909 98.2323H855.771C856.319 92.0878 856.68 85.9176 856.68 79.7473C859.013 79.359 861.321 79.0725 864.225 79.0725C869.515 79.0725 871.277 82.3148 871.277 85.8402C871.277 89.185 869.436 92.6316 865.704 92.6316C864.016 92.6316 862.434 92.0878 861.116 91.0254Z" fill="url(#paint7_linear_490_153)"/>
<path d="M919.813 104.743C919.813 106.765 921.495 107.491 923.208 107.491C924.735 107.491 926.107 107.106 927.559 106.688L927.397 110.233C925.922 110.544 924.113 110.758 922.613 110.758C918.488 110.758 914.889 109.516 914.889 104.409C914.889 103.033 915.431 97.1991 922.325 97.1991C926.58 97.1991 928.914 99.195 928.914 102.799C928.914 103.444 928.861 104.095 928.728 104.743H919.813ZM924.142 102.382C924.142 100.88 923.519 100.101 922.279 100.101C920.876 100.101 920.098 101.268 919.969 102.382H924.142Z" fill="url(#paint8_linear_490_153)"/>
<defs>
<linearGradient id="paint0_linear_490_153" x1="855.771" y1="96" x2="928.914" y2="96" gradientUnits="userSpaceOnUse">
<stop stop-color="white"/>
<stop offset="0.8" stop-color="white" stop-opacity="0"/>
</linearGradient>
<linearGradient id="paint1_linear_490_153" x1="855.771" y1="96" x2="928.914" y2="96" gradientUnits="userSpaceOnUse">
<stop stop-color="white"/>
<stop offset="0.8" stop-color="white" stop-opacity="0"/>
</linearGradient>
<linearGradient id="paint2_linear_490_153" x1="855.771" y1="96" x2="928.914" y2="96" gradientUnits="userSpaceOnUse">
<stop stop-color="white"/>
<stop offset="0.8" stop-color="white" stop-opacity="0"/>
</linearGradient>
<linearGradient id="paint3_linear_490_153" x1="855.771" y1="96" x2="928.914" y2="96" gradientUnits="userSpaceOnUse">
<stop stop-color="white"/>
<stop offset="0.8" stop-color="white" stop-opacity="0"/>
</linearGradient>
<linearGradient id="paint4_linear_490_153" x1="855.771" y1="96" x2="928.914" y2="96" gradientUnits="userSpaceOnUse">
<stop stop-color="white"/>
<stop offset="0.8" stop-color="white" stop-opacity="0"/>
</linearGradient>
<linearGradient id="paint5_linear_490_153" x1="855.771" y1="96" x2="928.914" y2="96" gradientUnits="userSpaceOnUse">
<stop stop-color="white"/>
<stop offset="0.8" stop-color="white" stop-opacity="0"/>
</linearGradient>
<linearGradient id="paint6_linear_490_153" x1="855.771" y1="96" x2="928.914" y2="96" gradientUnits="userSpaceOnUse">
<stop stop-color="white"/>
<stop offset="0.8" stop-color="white" stop-opacity="0"/>
</linearGradient>
<linearGradient id="paint7_linear_490_153" x1="855.771" y1="96" x2="928.914" y2="96" gradientUnits="userSpaceOnUse">
<stop stop-color="white"/>
<stop offset="0.8" stop-color="white" stop-opacity="0"/>
</linearGradient>
<linearGradient id="paint8_linear_490_153" x1="855.771" y1="96" x2="928.914" y2="96" gradientUnits="userSpaceOnUse">
<stop stop-color="white"/>
<stop offset="0.8" stop-color="white" stop-opacity="0"/>
</linearGradient>
<clipPath id="clip0_490_153">
<rect width="60.3429" height="46.6076" fill="white" transform="translate(32 72.6963)"/>
</clipPath>
<clipPath id="clip1_490_153">
<rect width="91.4286" height="45.4095" fill="white" transform="translate(410.058 73.2952)"/>
</clipPath>
<clipPath id="clip2_490_153">
<rect width="128" height="22.3216" fill="white" transform="translate(549.485 84.8391)"/>
</clipPath>
<clipPath id="clip3_490_153">
<rect width="82.2857" height="43.8857" fill="white" transform="translate(725.485 74.0571)"/>
</clipPath>
</defs>
</svg>
