<svg width="32" height="32" viewBox="0 0 32 32" fill="none" xmlns="http://www.w3.org/2000/svg">
<path d="M16.0003 4.36401C12.8401 4.36401 12.4435 4.37783 11.2023 4.43431C9.9636 4.49104 9.11805 4.68716 8.37819 4.9749C7.61288 5.27211 6.96369 5.66967 6.31692 6.31668C5.66967 6.96345 5.2721 7.61264 4.97393 8.37771C4.68545 9.11781 4.4891 9.9636 4.43334 11.2019C4.37783 12.443 4.36328 12.8399 4.36328 16C4.36328 19.1602 4.37734 19.5556 4.43358 20.7967C4.49055 22.0355 4.68667 22.881 4.97417 23.6209C5.27162 24.3862 5.66918 25.0354 6.31619 25.6822C6.96272 26.3294 7.61191 26.7279 8.37674 27.0251C9.11708 27.3129 9.96287 27.509 11.2014 27.5657C12.4426 27.6222 12.8389 27.636 15.9988 27.636C19.1592 27.636 19.5546 27.6222 20.7958 27.5657C22.0345 27.509 22.881 27.3129 23.6214 27.0251C24.3864 26.7279 25.0347 26.3294 25.6812 25.6822C26.3284 25.0354 26.726 24.3862 27.0242 23.6211C27.3102 22.881 27.5066 22.0352 27.5648 20.797C27.6205 19.5558 27.6351 19.1602 27.6351 16C27.6351 12.8399 27.6205 12.4433 27.5648 11.2021C27.5066 9.96336 27.3102 9.11781 27.0242 8.37795C26.726 7.61264 26.3284 6.96345 25.6812 6.31668C25.0339 5.66943 24.3867 5.27187 23.6206 4.9749C22.8788 4.68716 22.0328 4.49104 20.7941 4.43431C19.5529 4.37783 19.1577 4.36401 15.9966 4.36401H16.0003ZM14.9564 6.46092C15.2662 6.46043 15.6119 6.46092 16.0003 6.46092C19.1071 6.46092 19.4753 6.47207 20.7022 6.52783C21.8367 6.5797 22.4524 6.76927 22.8626 6.92854C23.4056 7.13944 23.7928 7.39156 24.1998 7.79882C24.607 8.20608 24.8591 8.59395 25.0705 9.13696C25.2298 9.54664 25.4196 10.1624 25.4712 11.2969C25.527 12.5235 25.5391 12.892 25.5391 15.9974C25.5391 19.1027 25.527 19.4712 25.4712 20.6978C25.4194 21.8323 25.2298 22.4481 25.0705 22.8578C24.8596 23.4008 24.607 23.7874 24.1998 24.1944C23.7925 24.6017 23.4059 24.8538 22.8626 25.0647C22.4529 25.2247 21.8367 25.4138 20.7022 25.4657C19.4756 25.5214 19.1071 25.5336 16.0003 25.5336C12.8932 25.5336 12.525 25.5214 11.2983 25.4657C10.1638 25.4133 9.54809 25.2237 9.13768 25.0645C8.59467 24.8536 8.2068 24.6015 7.79954 24.1942C7.39228 23.7869 7.14017 23.4 6.92878 22.8568C6.76951 22.4471 6.5797 21.8314 6.52806 20.6969C6.47231 19.4702 6.46116 19.1017 6.46116 15.9944C6.46116 12.8871 6.47231 12.5206 6.52806 11.294C6.57994 10.1595 6.76951 9.54374 6.92878 9.13357C7.13968 8.59055 7.39228 8.20269 7.79954 7.79542C8.2068 7.38816 8.59467 7.13605 9.13768 6.92466C9.54785 6.76467 10.1638 6.57558 11.2983 6.52346C12.3718 6.47498 12.7878 6.46044 14.9564 6.45801V6.46092ZM22.2115 8.39298C21.4406 8.39298 20.8151 9.01769 20.8151 9.78882C20.8151 10.5597 21.4406 11.1851 22.2115 11.1851C22.9824 11.1851 23.6078 10.5597 23.6078 9.78882C23.6078 9.01793 22.9824 8.3925 22.2115 8.3925V8.39298ZM16.0003 10.0244C12.7002 10.0244 10.0247 12.7 10.0247 16C10.0247 19.3 12.7002 21.9744 16.0003 21.9744C19.3003 21.9744 21.9749 19.3 21.9749 16C21.9749 12.7 19.3003 10.0244 16.0003 10.0244ZM16.0003 12.1214C18.1423 12.1214 19.8789 13.8578 19.8789 16C19.8789 18.142 18.1423 19.8787 16.0003 19.8787C13.858 19.8787 12.1216 18.142 12.1216 16C12.1216 13.8578 13.858 12.1214 16.0003 12.1214Z" fill="white"/>
</svg>
