<svg width="33" height="32" viewBox="0 0 33 32" fill="none" xmlns="http://www.w3.org/2000/svg">
<path d="M16.9549 4.36401C13.7947 4.36401 13.3981 4.37783 12.1569 4.43431C10.9182 4.49104 10.0726 4.68716 9.33278 4.9749C8.56747 5.27211 7.91828 5.66967 7.27151 6.31668C6.62426 6.96345 6.22669 7.61264 5.92852 8.37771C5.64004 9.11781 5.44369 9.9636 5.38793 11.2019C5.33242 12.443 5.31787 12.8399 5.31787 16C5.31787 19.1602 5.33193 19.5556 5.38817 20.7967C5.44514 22.0355 5.64126 22.881 5.92876 23.6209C6.22621 24.3862 6.62377 25.0354 7.27078 25.6822C7.91731 26.3294 8.5665 26.7279 9.33133 27.0251C10.0717 27.3129 10.9175 27.509 12.156 27.5657C13.3971 27.6222 13.7935 27.636 16.9534 27.636C20.1138 27.636 20.5092 27.6222 21.7503 27.5657C22.9891 27.509 23.8356 27.3129 24.576 27.0251C25.341 26.7279 25.9892 26.3294 26.6358 25.6822C27.283 25.0354 27.6806 24.3862 27.9788 23.6211C28.2648 22.881 28.4612 22.0352 28.5194 20.797C28.5751 19.5558 28.5897 19.1602 28.5897 16C28.5897 12.8399 28.5751 12.4433 28.5194 11.2021C28.4612 9.96336 28.2648 9.11781 27.9788 8.37795C27.6806 7.61264 27.283 6.96345 26.6358 6.31668C25.9885 5.66943 25.3413 5.27187 24.5752 4.9749C23.8334 4.68716 22.9874 4.49104 21.7486 4.43431C20.5075 4.37783 20.1123 4.36401 16.9512 4.36401H16.9549ZM15.911 6.46092C16.2208 6.46043 16.5665 6.46092 16.9549 6.46092C20.0617 6.46092 20.4299 6.47207 21.6568 6.52783C22.7913 6.5797 23.407 6.76927 23.8172 6.92854C24.3602 7.13944 24.7473 7.39156 25.1544 7.79882C25.5616 8.20608 25.8137 8.59395 26.0251 9.13696C26.1844 9.54664 26.3742 10.1624 26.4258 11.2969C26.4816 12.5235 26.4937 12.892 26.4937 15.9974C26.4937 19.1027 26.4816 19.4712 26.4258 20.6978C26.374 21.8323 26.1844 22.4481 26.0251 22.8578C25.8142 23.4008 25.5616 23.7874 25.1544 24.1944C24.7471 24.6017 24.3604 24.8538 23.8172 25.0647C23.4075 25.2247 22.7913 25.4138 21.6568 25.4657C20.4301 25.5214 20.0617 25.5336 16.9549 25.5336C13.8478 25.5336 13.4796 25.5214 12.2529 25.4657C11.1184 25.4133 10.5027 25.2237 10.0923 25.0645C9.54926 24.8536 9.16139 24.6015 8.75413 24.1942C8.34687 23.7869 8.09476 23.4 7.88337 22.8568C7.7241 22.4471 7.53429 21.8314 7.48265 20.6969C7.4269 19.4702 7.41575 19.1017 7.41575 15.9944C7.41575 12.8871 7.4269 12.5206 7.48265 11.294C7.53453 10.1595 7.7241 9.54374 7.88337 9.13357C8.09427 8.59055 8.34687 8.20269 8.75413 7.79542C9.16139 7.38816 9.54926 7.13605 10.0923 6.92466C10.5024 6.76467 11.1184 6.57558 12.2529 6.52346C13.3264 6.47498 13.7423 6.46044 15.911 6.45801V6.46092ZM23.1661 8.39298C22.3952 8.39298 21.7697 9.01769 21.7697 9.78882C21.7697 10.5597 22.3952 11.1851 23.1661 11.1851C23.9369 11.1851 24.5624 10.5597 24.5624 9.78882C24.5624 9.01793 23.9369 8.3925 23.1661 8.3925V8.39298ZM16.9549 10.0244C13.6548 10.0244 10.9793 12.7 10.9793 16C10.9793 19.3 13.6548 21.9744 16.9549 21.9744C20.2549 21.9744 22.9295 19.3 22.9295 16C22.9295 12.7 20.2549 10.0244 16.9549 10.0244ZM16.9549 12.1214C19.0968 12.1214 20.8335 13.8578 20.8335 16C20.8335 18.142 19.0968 19.8787 16.9549 19.8787C14.8126 19.8787 13.0762 18.142 13.0762 16C13.0762 13.8578 14.8126 12.1214 16.9549 12.1214Z" fill="white"/>
</svg>
