<svg width="155" height="22" viewBox="0 0 155 22" fill="none" xmlns="http://www.w3.org/2000/svg">
<path d="M0 20.5482C0.440247 19.662 0.892007 18.787 1.32064 17.8899C3.98525 12.3959 6.64975 6.91309 9.30274 1.41915C9.47656 1.08687 9.68501 0.931763 10.0789 0.931763C10.4613 0.931763 10.6582 1.07578 10.8203 1.39698C13.8441 7.72167 16.8793 14.0352 19.9146 20.3488C20.2042 20.9469 19.9841 21.2681 19.2889 21.2792C18.536 21.2903 17.783 21.2681 17.0415 21.2903C16.4738 21.3125 16.1378 21.0577 15.9061 20.5814C14.655 17.9009 13.3922 15.2204 12.1178 12.54C11.4691 11.1885 10.8319 9.84832 10.1832 8.50809C10.1369 8.39733 10.0789 8.29765 9.98629 8.12038C9.68502 8.75179 9.41858 9.31668 9.15215 9.89266C7.48388 13.4592 5.8041 17.0258 4.13583 20.6036C3.91576 21.0799 3.56813 21.3125 3.03527 21.3014C2.28223 21.2903 1.5292 21.2903 0.787777 21.3014C0.451861 21.3014 0.173817 21.2239 0 20.9359C0 20.7918 0 20.67 0 20.5482ZM27.1783 20.4817C27.1783 21.1241 27.3521 21.2903 28.0241 21.2903C30.2252 21.2903 32.4263 21.3014 34.6275 21.2792C35.311 21.2681 35.9946 21.2239 36.6664 21.1241C42.2968 20.2269 46.1777 15.0211 45.2509 9.61571C44.4399 4.85286 40.0029 1.25296 34.9287 1.24188C32.6001 1.24188 30.2716 1.24188 27.943 1.24188C27.3289 1.24188 27.1668 1.39698 27.1668 1.98405C27.1668 5.0633 27.1668 8.15363 27.1668 11.2329C27.1783 14.3121 27.1783 17.3914 27.1783 20.4817ZM31.0941 4.77526C31.1288 4.75318 31.1404 4.73101 31.1636 4.73101C32.8666 4.75318 34.5811 4.55374 36.261 4.94145C38.9718 5.57276 40.9644 7.88777 41.1614 10.5351C41.3121 12.4623 40.8486 14.2014 39.4932 15.6745C38.242 17.0258 36.6201 17.6905 34.7433 17.7458C33.5385 17.7791 32.3452 17.7569 31.0941 17.7569C31.0941 13.3817 31.0941 9.07299 31.0941 4.77526Z" fill="white"/>
<path d="M146.811 21.5338C146.579 21.5005 146.335 21.4562 146.08 21.423C145.548 21.3454 144.992 21.2679 144.471 21.1461C143.115 20.8359 141.899 20.2489 140.833 19.3849C140.358 18.9972 140.334 18.8643 140.648 18.3438C140.96 17.8342 141.262 17.3247 141.574 16.8152C141.748 16.5272 141.956 16.3832 142.189 16.3832C142.339 16.3832 142.524 16.4496 142.721 16.5715C143.798 17.2471 144.98 17.9117 146.359 18.1997C146.636 18.2551 146.915 18.2883 147.181 18.2883C147.564 18.2883 147.946 18.2219 148.305 18.1001C149.128 17.812 149.695 17.236 149.88 16.5161C150.066 15.8072 149.845 15.043 149.267 14.4226C148.595 13.7137 147.715 13.2929 146.845 12.8941L146.811 12.872C146.521 12.739 146.231 12.6061 145.942 12.4732C145.049 12.0634 144.123 11.6535 143.277 11.1551C141.899 10.3465 141.018 9.21664 140.671 7.79891C140.312 6.37 140.532 4.93009 141.284 3.73379C142.038 2.53758 143.277 1.67356 144.783 1.29703C145.605 1.08659 146.44 0.986816 147.251 0.986816C149.232 0.986816 151.201 1.61823 153.113 2.85878C153.483 3.10247 153.564 3.4791 153.322 3.84455C152.962 4.38737 152.592 4.90792 152.221 5.4064C152.001 5.70543 151.804 5.83836 151.572 5.83836C151.41 5.83836 151.236 5.77194 151.016 5.65009C149.845 4.97444 148.838 4.47596 147.68 4.25444C147.436 4.21009 147.205 4.18792 146.973 4.18792C146.59 4.18792 146.208 4.25444 145.86 4.37629C145.096 4.65314 144.563 5.19596 144.401 5.86053C144.238 6.53619 144.471 7.2451 145.027 7.81C145.699 8.49674 146.579 8.88436 147.436 9.26099L147.482 9.28316C147.702 9.38284 147.935 9.48251 148.166 9.58219C149.093 9.99207 150.054 10.413 150.958 10.9003C152.07 11.4985 152.927 12.3181 153.507 13.3371C154.225 14.622 154.364 16.0952 153.889 17.4686C153.379 18.9308 152.256 20.1159 150.726 20.8027C149.88 21.1793 149.001 21.4119 148.108 21.4673C148.016 21.4783 147.935 21.4894 147.842 21.5116C147.807 21.5227 147.772 21.5338 147.737 21.5338H146.811ZM102.533 21.2346C102.185 21.2346 101.977 21.1018 101.815 20.7916C101.201 19.6176 100.576 18.4213 99.9611 17.2582C99.3587 16.1062 98.7338 14.9211 98.1304 13.7581C98.0029 13.5144 97.8642 13.3704 97.528 13.3704H97.4941C97.1344 13.3814 96.7294 13.3814 96.2422 13.3814C95.9759 13.3814 95.7097 13.3814 95.4435 13.3814C95.1649 13.3814 94.8874 13.3814 94.5975 13.3814H94.54C94.54 13.3814 94.54 18.8421 94.54 20.4261C94.54 21.0685 94.3776 21.2236 93.694 21.2236C93.694 21.2236 92.6281 21.2236 92.3619 21.2236C92.0371 21.2236 91.7246 21.2236 91.3998 21.2236C90.8787 21.2236 90.7049 21.0575 90.7049 20.5701C90.7049 14.3562 90.7049 8.14228 90.7049 1.91726C90.7049 1.44095 90.8673 1.28594 91.3648 1.28594C92.1758 1.28594 92.9869 1.28594 93.8102 1.28594C94.7476 1.28594 95.6861 1.28594 96.6245 1.28594C97.9104 1.28594 98.9763 1.28594 99.9847 1.29703C101.711 1.30811 103.39 2.01693 104.583 3.25758C105.777 4.48705 106.39 6.13739 106.263 7.78783C106.102 9.95882 104.92 11.5982 102.649 12.8055C102.498 12.883 102.348 12.9606 102.174 13.027C102.093 13.0602 102 13.1045 101.908 13.1488L101.849 13.171L102.556 14.4226C103.066 15.3198 103.564 16.1948 104.062 17.081L104.375 17.6459C104.873 18.532 105.394 19.4403 105.893 20.3375C106.043 20.6033 106.067 20.8359 105.974 20.991C105.869 21.1571 105.649 21.2346 105.313 21.2457C105.128 21.2457 104.931 21.2457 104.746 21.2457C104.537 21.2457 103.726 21.2457 103.53 21.2457C103.194 21.2457 102.858 21.2457 102.522 21.2457L102.533 21.2346ZM94.5739 10.3908H96.717C97.749 10.3908 98.7677 10.3908 99.7873 10.3908C99.8922 10.3908 99.996 10.3686 100.1 10.3354C100.123 10.3244 100.158 10.3244 100.181 10.3133C101.572 9.99208 102.649 8.55207 102.498 7.23402C102.324 5.76086 101.038 4.65314 99.5211 4.64205C98.9301 4.64205 98.3391 4.64205 97.7491 4.64205H94.5862V10.3908H94.5739ZM58.603 21.2346C57.6881 21.2346 56.7723 21.2346 55.8575 21.2346H54.5603C54.0155 21.2346 53.8418 21.0686 53.8418 20.559C53.8418 14.3562 53.8418 8.15337 53.8418 1.95051C53.8418 1.45204 54.0042 1.29703 54.514 1.29703H54.548C55.2438 1.29703 55.9274 1.29703 56.6222 1.28594C57.3171 1.28594 58.0006 1.27486 58.6955 1.27486C59.8426 1.27486 60.7811 1.28594 61.6496 1.30811C63.654 1.36345 65.2534 2.10562 66.4231 3.52335C68.1839 5.66118 67.7789 8.49674 65.4734 10.2689C65.2411 10.4462 64.9862 10.6123 64.7312 10.7785C64.6161 10.856 64.5 10.9225 64.3951 11L64.3262 11.0443L64.4075 11.0886C64.5699 11.1772 64.7436 11.2659 64.905 11.3545C65.2647 11.5427 65.6348 11.7421 65.9832 11.9636C67.2691 12.8387 68.0328 14.1014 68.1027 15.5192C68.1839 17.0367 67.5117 18.5542 66.307 19.5843C65.0324 20.6697 63.4577 21.2015 61.4996 21.2126C60.631 21.2346 59.7151 21.2346 58.603 21.2346ZM57.6296 17.8674H57.6881C58.1168 17.8674 58.5454 17.8785 58.9627 17.8785C59.3677 17.8896 59.7963 17.8896 60.2137 17.8896C60.8273 17.8896 61.3258 17.8674 61.7894 17.8342C62.4843 17.7789 63.1216 17.4022 63.5502 16.8041C64.0138 16.1506 64.1638 15.342 63.9439 14.6331C63.6427 13.6805 62.5192 12.8498 61.4184 12.7833C60.6886 12.739 59.9351 12.739 59.2176 12.739C58.9041 12.739 58.5917 12.739 58.2792 12.728C58.2093 12.728 58.1394 12.728 58.0705 12.728H57.6419V17.8674H57.6296ZM57.6296 9.67078H59.6576C60.0862 9.67078 60.5148 9.67078 60.9322 9.67078C61.8819 9.67078 62.6117 9.27207 63.0979 8.49674C63.5964 7.69924 63.6427 6.65804 63.2028 5.86053C62.8081 5.14053 62.0783 4.70857 61.1398 4.64205C60.6649 4.60889 60.19 4.60889 59.8313 4.60889C59.6463 4.60889 59.4715 4.60889 59.2865 4.60889C59.1015 4.60889 58.9278 4.60889 58.7417 4.60889C58.6492 4.60889 58.5567 4.60889 58.4642 4.60889C58.3717 4.60889 58.2792 4.60889 58.1743 4.60889H57.6296V9.67078ZM78.7372 21.2346C78.3436 21.2346 77.9499 21.2346 77.5562 21.2346C77.0351 21.2346 76.8377 21.0464 76.8377 20.5479C76.8377 14.3451 76.8377 8.15337 76.8377 1.95051C76.8377 1.46312 77.0227 1.29703 77.5326 1.29703C77.9499 1.29703 78.3672 1.29703 78.7845 1.29703C79.1895 1.29703 79.6068 1.29703 80.0118 1.29703C80.5103 1.29703 80.6727 1.45204 80.6727 1.92834C80.6727 4.25444 80.6727 6.58053 80.6727 8.90653C80.6727 8.90653 80.6727 18.2661 80.6727 20.5701C80.6727 21.0796 80.499 21.2457 79.9543 21.2457C79.5482 21.2236 79.1433 21.2346 78.7372 21.2346ZM119.76 21.2236C118.809 21.2236 117.872 21.2236 116.921 21.2236H116.088C115.497 21.2236 115.334 21.0685 115.334 20.5147C115.334 18.2219 115.334 11.2326 115.334 11.2326V2.01693C115.334 1.41888 115.474 1.28594 116.088 1.28594H116.099C116.771 1.28594 117.443 1.28594 118.115 1.29703C118.787 1.29703 119.459 1.30811 120.13 1.30811C121.057 1.30811 121.833 1.29703 122.563 1.28594C122.633 1.28594 122.714 1.28594 122.783 1.28594C125.216 1.28594 127.592 2.13878 129.456 3.67846C131.263 5.17379 132.503 7.21185 132.932 9.41609C133.395 11.7643 132.932 14.2233 131.646 16.3278C130.36 18.4323 128.333 20.0052 125.97 20.7474C124.915 21.0796 123.803 21.2457 122.598 21.2457C121.671 21.2236 120.721 21.2236 119.76 21.2236ZM119.123 17.8009H119.181C119.563 17.8009 119.934 17.8009 120.316 17.812C120.686 17.812 121.057 17.8231 121.428 17.8231C121.95 17.8231 122.378 17.812 122.783 17.8009C124.753 17.7345 126.363 16.9923 127.557 15.5968C128.959 13.9685 129.445 12.0412 129.005 9.85914C128.495 7.33369 126.954 5.68325 124.44 4.95227C123.537 4.6864 122.633 4.65314 121.857 4.65314C121.567 4.65314 121.266 4.66423 120.976 4.66423C120.686 4.67531 120.385 4.67531 120.084 4.67531C119.748 4.67531 119.459 4.66423 119.204 4.65314H119.146V17.8009H119.123Z" fill="white"/>
</svg>
