<svg width="300" height="64" viewBox="0 0 300 64" fill="none" xmlns="http://www.w3.org/2000/svg">
<path d="M64 32C64 49.6762 49.6762 64 32 64C14.3238 64 0 49.6762 0 32C0 14.3238 14.3238 0 32 0C49.6762 0 64 14.3238 64 32ZM17.7256 46.6203C17.981 47.0486 18.3681 47.1805 18.8458 47.1722C19.9166 47.1558 20.9874 47.1558 22.0581 47.1722C22.8324 47.1805 23.3185 46.851 23.6313 46.1343C26.0036 40.8052 28.3923 35.4925 30.7727 30.1714C31.1516 29.323 31.5306 28.4828 31.9588 27.5356C32.0823 27.7992 32.1648 27.9558 32.2389 28.1204C33.1532 30.122 34.0757 32.1235 34.9817 34.1251C36.7856 38.1199 38.5895 42.1148 40.3769 46.118C40.698 46.8428 41.1758 47.2052 41.9913 47.1805C43.062 47.1475 44.1328 47.1805 45.2036 47.1722C46.1921 47.164 46.5051 46.678 46.1014 45.7884C41.7771 36.3737 37.4528 26.9508 33.1367 17.528C32.9143 17.0502 32.626 16.8278 32.0823 16.8278C31.514 16.8278 31.2176 17.0584 30.9869 17.5527C27.1979 25.7401 23.4008 33.9274 19.6036 42.1148C18.9858 43.441 18.3434 44.7506 17.7174 46.0685C17.7256 46.2579 17.7256 46.4391 17.7256 46.6203Z" fill="#3369E8"/>
<path d="M17.7256 46.6203C17.981 47.0486 18.3681 47.1805 18.8458 47.1722C19.9166 47.1558 20.9874 47.1558 22.0581 47.1722C22.8324 47.1805 23.3185 46.851 23.6313 46.1343C26.0036 40.8052 28.3923 35.4925 30.7727 30.1714C31.1516 29.323 31.5306 28.4828 31.9588 27.5356C32.0823 27.7992 32.1648 27.9558 32.2389 28.1204C33.1532 30.122 34.0757 32.1235 34.9817 34.1251C36.7856 38.1199 38.5895 42.1148 40.3769 46.118C40.698 46.8428 41.1758 47.2052 41.9913 47.1805C43.062 47.1475 44.1328 47.1805 45.2036 47.1722C46.1921 47.164 46.5051 46.678 46.1014 45.7884C41.7771 36.3737 37.4528 26.9508 33.1367 17.528C32.9143 17.0502 32.626 16.8278 32.0823 16.8278C31.514 16.8278 31.2176 17.0584 30.9869 17.5527C27.1979 25.7401 23.4008 33.9274 19.6036 42.1148C18.9858 43.441 18.3434 44.7506 17.7174 46.0685C17.7256 46.2579 17.7256 46.4391 17.7256 46.6203Z" fill="white"/>
<path d="M79.3905 46.138C80.0204 44.7935 80.6667 43.4661 81.28 42.1049C85.0922 33.7701 88.9042 25.452 92.6998 17.1172C92.9485 16.613 93.2467 16.3777 93.8103 16.3777C94.3573 16.3777 94.6391 16.5962 94.871 17.0835C99.197 26.6787 103.54 36.257 107.882 45.8354C108.296 46.7429 107.981 47.2301 106.987 47.247C105.91 47.2638 104.832 47.2301 103.772 47.2638C102.959 47.2974 102.479 46.9109 102.147 46.1883C100.357 42.1218 98.5506 38.0551 96.7273 33.9886C95.7992 31.9383 94.8876 29.9051 93.9595 27.8718C93.8932 27.7038 93.8103 27.5526 93.6778 27.2836C93.2467 28.2415 92.8656 29.0985 92.4844 29.9723C90.0976 35.3832 87.6944 40.7941 85.3076 46.2219C84.9927 46.9445 84.4954 47.2974 83.733 47.2806C82.6557 47.2638 81.5783 47.2638 80.5176 47.2806C80.037 47.2806 79.6392 47.163 79.3905 46.726C79.3905 46.5075 79.3905 46.3227 79.3905 46.138ZM118.274 46.0371C118.274 47.0116 118.523 47.2638 119.484 47.2638C122.633 47.2638 125.782 47.2806 128.932 47.247C129.909 47.2301 130.887 47.163 131.849 47.0116C139.904 45.6505 145.456 37.7527 144.13 29.5522C142.97 22.3264 136.622 16.865 129.363 16.8482C126.031 16.8482 122.7 16.8482 119.368 16.8482C118.49 16.8482 118.258 17.0835 118.258 17.9742C118.258 22.6457 118.258 27.3341 118.258 32.0056C118.274 36.6772 118.274 41.3487 118.274 46.0371ZM123.876 22.2087C123.926 22.1752 123.943 22.1416 123.976 22.1416C126.412 22.1752 128.865 21.8726 131.269 22.4608C135.147 23.4186 137.998 26.9307 138.279 30.9469C138.495 33.8708 137.832 36.5091 135.893 38.7441C134.103 40.7941 131.782 41.8025 129.097 41.8864C127.374 41.9369 125.666 41.9033 123.876 41.9033C123.876 35.2656 123.876 28.7288 123.876 22.2087Z" fill="white"/>
<path d="M289.431 47.6334C289.098 47.5829 288.75 47.5156 288.385 47.4653C287.623 47.3476 286.828 47.23 286.082 47.0451C284.142 46.5747 282.403 45.684 280.878 44.3734C280.198 43.7852 280.164 43.5835 280.613 42.7938C281.06 42.0207 281.491 41.2478 281.938 40.4747C282.186 40.0379 282.485 39.8194 282.817 39.8194C283.032 39.8194 283.297 39.9202 283.579 40.105C285.12 41.1301 286.811 42.1383 288.783 42.5753C289.181 42.6592 289.579 42.7097 289.96 42.7097C290.507 42.7097 291.054 42.6089 291.567 42.424C292.745 41.9871 293.557 41.1132 293.822 40.0211C294.088 38.9456 293.772 37.7861 292.944 36.845C291.982 35.7695 290.723 35.131 289.479 34.526L289.431 34.4925C289.016 34.2908 288.601 34.0892 288.186 33.8875C286.91 33.2658 285.585 32.644 284.375 31.8879C282.403 30.6611 281.142 28.947 280.645 26.7961C280.132 24.6283 280.447 22.4438 281.523 20.6289C282.601 18.8141 284.375 17.5033 286.529 16.9321C287.706 16.6128 288.9 16.4615 290.06 16.4615C292.894 16.4615 295.711 17.4194 298.447 19.3014C298.976 19.6712 299.092 20.2425 298.745 20.797C298.23 21.6205 297.701 22.4102 297.17 23.1664C296.855 23.6201 296.573 23.8218 296.242 23.8218C296.01 23.8218 295.761 23.721 295.447 23.5362C293.772 22.5111 292.331 21.7549 290.673 21.4188C290.325 21.3515 289.994 21.3179 289.661 21.3179C289.114 21.3179 288.567 21.4188 288.07 21.6037C286.976 22.0237 286.214 22.8472 285.982 23.8554C285.75 24.8805 286.082 25.956 286.878 26.813C287.839 27.8548 289.098 28.4429 290.325 29.0143L290.391 29.0479C290.706 29.1991 291.038 29.3503 291.369 29.5016C292.695 30.1234 294.07 30.7619 295.363 31.5013C296.954 32.4088 298.18 33.6522 299.01 35.1982C300.038 37.1475 300.236 39.3824 299.557 41.4661C298.828 43.6844 297.22 45.4824 295.032 46.5242C293.822 47.0956 292.563 47.4485 291.286 47.5324C291.154 47.5493 291.038 47.5661 290.906 47.5997C290.856 47.6165 290.805 47.6334 290.755 47.6334H289.431ZM226.082 47.1795C225.585 47.1795 225.287 46.978 225.056 46.5074C224.176 44.7263 223.282 42.9113 222.403 41.1469C221.541 39.3992 220.647 37.6013 219.784 35.8368C219.601 35.4671 219.403 35.2486 218.922 35.2486H218.873C218.359 35.2654 217.779 35.2654 217.082 35.2654C216.701 35.2654 216.32 35.2654 215.94 35.2654C215.541 35.2654 215.144 35.2654 214.729 35.2654H214.647C214.647 35.2654 214.647 43.5499 214.647 45.9528C214.647 46.9276 214.415 47.1627 213.437 47.1627C213.437 47.1627 211.912 47.1627 211.531 47.1627C211.066 47.1627 210.619 47.1627 210.154 47.1627C209.409 47.1627 209.16 46.9107 209.16 46.1713C209.16 36.7443 209.16 27.3171 209.16 17.873C209.16 17.1504 209.393 16.9153 210.104 16.9153C211.265 16.9153 212.425 16.9153 213.603 16.9153C214.944 16.9153 216.287 16.9153 217.629 16.9153C219.469 16.9153 220.994 16.9153 222.437 16.9321C224.906 16.9489 227.309 18.0243 229.016 19.9065C230.723 21.7717 231.601 24.2754 231.419 26.7793C231.188 30.0729 229.497 32.56 226.248 34.3916C226.032 34.5092 225.817 34.6269 225.569 34.7277C225.453 34.7781 225.32 34.8453 225.188 34.9125L225.104 34.9462L226.116 36.845C226.845 38.2062 227.557 39.5336 228.27 40.8781L228.717 41.7351C229.431 43.0794 230.176 44.4573 230.89 45.8184C231.104 46.2218 231.138 46.5747 231.006 46.81C230.856 47.062 230.541 47.1795 230.06 47.1964C229.795 47.1964 229.513 47.1964 229.248 47.1964C228.95 47.1964 227.79 47.1964 227.509 47.1964C227.028 47.1964 226.547 47.1964 226.066 47.1964L226.082 47.1795ZM214.695 30.7283H217.762C219.238 30.7283 220.695 30.7283 222.154 30.7283C222.304 30.7283 222.453 30.6946 222.601 30.6443C222.635 30.6275 222.685 30.6275 222.717 30.6107C224.707 30.1234 226.248 27.9388 226.032 25.9391C225.784 23.7042 223.944 22.0237 221.773 22.0069C220.928 22.0069 220.082 22.0069 219.238 22.0069H214.713V30.7283H214.695ZM163.232 47.1795C161.924 47.1795 160.613 47.1795 159.304 47.1795H157.449C156.669 47.1795 156.421 46.9276 156.421 46.1545C156.421 36.7443 156.421 27.3339 156.421 17.9235C156.421 17.1673 156.653 16.9321 157.382 16.9321H157.431C158.427 16.9321 159.404 16.9321 160.399 16.9153C161.393 16.9153 162.371 16.8985 163.365 16.8985C165.006 16.8985 166.349 16.9153 167.591 16.9489C170.459 17.0329 172.747 18.1588 174.421 20.3097C176.94 23.553 176.36 27.8548 173.062 30.5434C172.729 30.8124 172.365 31.0643 172 31.3165C171.835 31.4341 171.669 31.535 171.519 31.6525L171.421 31.7197L171.537 31.7869C171.769 31.9213 172.018 32.0559 172.249 32.1903C172.763 32.4759 173.293 32.7784 173.791 33.1144C175.631 34.4421 176.724 36.3577 176.824 38.5086C176.94 40.8108 175.978 43.113 174.254 44.6758C172.431 46.3225 170.178 47.1292 167.376 47.1461C166.134 47.1795 164.824 47.1795 163.232 47.1795ZM161.84 42.0712H161.924C162.537 42.0712 163.15 42.088 163.747 42.088C164.326 42.1048 164.94 42.1048 165.537 42.1048C166.415 42.1048 167.128 42.0712 167.791 42.0207C168.785 41.9368 169.697 41.3654 170.31 40.4579C170.974 39.4665 171.188 38.2398 170.874 37.1643C170.443 35.7191 168.835 34.4589 167.26 34.358C166.216 34.2908 165.138 34.2908 164.112 34.2908C163.663 34.2908 163.216 34.2908 162.769 34.274C162.669 34.274 162.569 34.274 162.471 34.274H161.857V42.0712H161.84ZM161.84 29.636H164.741C165.354 29.636 165.968 29.636 166.565 29.636C167.924 29.636 168.968 29.0311 169.663 27.8548C170.376 26.6449 170.443 25.0653 169.813 23.8554C169.249 22.7631 168.204 22.1078 166.862 22.0069C166.182 21.9565 165.503 21.9565 164.99 21.9565C164.725 21.9565 164.475 21.9565 164.21 21.9565C163.946 21.9565 163.697 21.9565 163.431 21.9565C163.299 21.9565 163.166 21.9565 163.034 21.9565C162.901 21.9565 162.769 21.9565 162.619 21.9565H161.84V29.636ZM192.038 47.1795C191.475 47.1795 190.912 47.1795 190.348 47.1795C189.603 47.1795 189.321 46.8939 189.321 46.1377C189.321 36.7275 189.321 27.3339 189.321 17.9235C189.321 17.1841 189.585 16.9321 190.315 16.9321C190.912 16.9321 191.509 16.9321 192.106 16.9321C192.685 16.9321 193.282 16.9321 193.862 16.9321C194.575 16.9321 194.807 17.1673 194.807 17.8899C194.807 21.4188 194.807 24.9477 194.807 28.4765C194.807 28.4765 194.807 42.676 194.807 46.1713C194.807 46.9444 194.559 47.1964 193.779 47.1964C193.198 47.1627 192.619 47.1795 192.038 47.1795ZM250.729 47.1627C249.369 47.1627 248.028 47.1627 246.667 47.1627H245.475C244.629 47.1627 244.397 46.9276 244.397 46.0874C244.397 42.6089 244.397 32.0054 244.397 32.0054V18.0243C244.397 17.117 244.597 16.9153 245.475 16.9153H245.491C246.453 16.9153 247.414 16.9153 248.375 16.9321C249.337 16.9321 250.298 16.9489 251.259 16.9489C252.585 16.9489 253.695 16.9321 254.739 16.9153C254.839 16.9153 254.956 16.9153 255.054 16.9153C258.535 16.9153 261.934 18.2091 264.601 20.545C267.186 22.8136 268.96 25.9055 269.573 29.2496C270.236 32.812 269.573 36.5426 267.734 39.7353C265.894 42.9282 262.994 45.3143 259.613 46.4403C258.104 46.9444 256.513 47.1964 254.789 47.1964C253.463 47.1627 252.104 47.1627 250.729 47.1627ZM249.817 41.9702H249.9C250.447 41.9702 250.978 41.9702 251.525 41.9871C252.054 41.9871 252.585 42.0039 253.116 42.0039C253.862 42.0039 254.475 41.9871 255.054 41.9702C257.872 41.8695 260.176 40.7435 261.884 38.6263C263.889 36.1561 264.585 33.2322 263.956 29.9217C263.226 26.0904 261.022 23.5865 257.425 22.4775C256.132 22.0741 254.839 22.0237 253.729 22.0237C253.314 22.0237 252.884 22.0405 252.469 22.0405C252.054 22.0573 251.623 22.0573 251.192 22.0573C250.712 22.0573 250.298 22.0405 249.934 22.0237H249.85V41.9702H249.817Z" fill="white"/>
</svg>
