<svg width="33" height="32" viewBox="0 0 33 32" fill="none" xmlns="http://www.w3.org/2000/svg">
<path d="M25.7174 9.30582L24.3152 10.6501C24.1944 10.7421 24.1343 10.8935 24.1592 11.0435V20.9206C24.1343 21.0706 24.194 21.222 24.3152 21.314L25.6844 22.6582V22.9533H18.7974V22.6582L20.2158 21.2813C20.3552 21.1419 20.3552 21.1011 20.3552 20.8879V12.904L16.4114 22.9206H15.8785L11.287 12.904V19.6175C11.2487 19.8999 11.3425 20.1837 11.5413 20.3881L13.386 22.6259V22.921H8.15488V22.6259L9.99965 20.3881C10.1971 20.1837 10.2852 19.8978 10.2374 19.6175V11.8548C10.2592 11.6392 10.177 11.4263 10.0162 11.2813L8.37617 9.30582V9.01077H13.4679L17.4033 17.642L20.8635 9.01077H25.7174V9.30582Z" fill="white"/>
</svg>
