<svg width="32" height="32" viewBox="0 0 32 32" fill="none" xmlns="http://www.w3.org/2000/svg">
<path d="M24.7633 9.30582L23.3611 10.6501C23.2403 10.7421 23.1802 10.8935 23.2051 11.0435V20.9206C23.1802 21.0706 23.2399 21.222 23.3611 21.314L24.7303 22.6582V22.9533H17.8433V22.6582L19.2617 21.2813C19.4011 21.1419 19.4011 21.1011 19.4011 20.8879V12.904L15.4573 22.9206H14.9244L10.3329 12.904V19.6175C10.2946 19.8999 10.3884 20.1837 10.5872 20.3881L12.4319 22.6259V22.921H7.20078V22.6259L9.04555 20.3881C9.24295 20.1837 9.33111 19.8978 9.28334 19.6175V11.8548C9.30512 11.6392 9.22293 11.4263 9.06205 11.2813L7.42207 9.30582V9.01077H12.5138L16.4492 17.642L19.9094 9.01077H24.7633V9.30582Z" fill="white"/>
</svg>
